#N canvas 628 397 1156 522 10;
#X declare -lib ggee;
#X obj 52 2 adc~;
#X obj 52 481 outlet;
#X obj 159 404 outlet;
#X obj 188 434 outlet;
#X obj 68 264 env~ 32;
#X obj 158 243 hip~ 200 20;
#X obj 186 327 bng 15 250 50 0 bonkbonk2 empty empty 0 -6 0 8 -258113
-1 -1;
#X obj 159 327 bng 15 250 50 0 bonkbonk empty empty 0 -6 0 8 -258113
-1 -1;
#X floatatom 396 434 5 0 0 0 - - -;
#X obj 396 460 s takt;
#X obj 52 326 *~;
#X obj 68 306 >;
#X obj 52 344 env~ 32;
#X msg 218 364 reset;
#X obj 83 285 r envsen;
#X obj 52 439 - 0;
#X obj 78 420 r envcorr;
#X msg 52 382 \$1 10;
#X obj 52 401 line;
#X obj 87 401 r takt;
#X floatatom 0 179 5 0 4 0 - - -;
#X obj 0 199 s ftype;
#X floatatom 109 307 5 0 0 0 - - -;
#X obj 349 388 spigot;
#X obj 396 388 spigot;
#X obj 442 388 == 0;
#X obj 474 388 r joy;
#X obj 504 149 timer;
#X obj 504 115 spigot;
#X obj 552 116 spigot;
#X obj 541 95 == 0;
#X obj 349 410 / 1;
#X obj 365 340 r multiblubb;
#X obj 349 430 int;
#X obj 504 67 r 6_b;
#X obj 553 68 r 6_bt;
#X obj 54 143 /~ 2;
#X obj 85 143 /~ 2;
#X obj 52 209 filterbank;
#X obj 159 294 bonk~;
#X msg 226 321 learn 0;
#X msg 226 291 learn 10;
#X msg 290 287 write templates.txt;
#X msg 290 317 read templates.txt;
#X text 403 364 re not working in snow leopard;
#X obj 52 363 mapping/autoscale 0 128;
#X text 99 454 the scaling can actually go;
#X obj 0 1 inlet;
#X obj 158 220 s~ filtered_mic;
#X floatatom 449 436 5 0 0 0 - - -;
#X obj 289 390 bng 15 250 50 0 empty empty empty 17 7 0 10 -258113
-1 -1;
#X obj 449 460 s duration;
#X obj 289 460 s retakt;
#X obj 63 98 s~ __fx_adcdirect_R;
#X obj 100 121 s~ __fx_adcdirect_L;
#X msg 404 58 start;
#X msg 427 99 stop;
#X obj 314 133 dac~;
#X obj 404 40 bng 15 250 50 0 empty empty empty 17 7 0 10 -258113 -1
-1;
#X obj 445 58 s start;
#X obj 427 77 bng 15 250 50 0 empty empty empty 17 7 0 10 -258113 -1
-1;
#X obj 433 129 s stop;
#X obj 344 133 s~ il;
#X obj 381 134 s~ ir;
#X obj 329 70 readsf~ 2;
#X obj 569 289 unpack;
#X floatatom 569 339 0 0 0 0 - - -;
#X floatatom 583 316 0 0 0 0 - - -;
#X obj 613 289 unpack;
#X floatatom 613 339 0 0 0 0 - - -;
#X floatatom 646 316 0 0 0 0 - - -;
#X obj 659 289 unpack;
#X floatatom 660 340 0 0 0 0 - - -;
#X floatatom 705 315 0 0 0 0 - - -;
#X obj 158 265 fiddle~ 1024 1 20 3;
#N canvas 0 0 450 300 (subpatch) 0;
#X array signal 882 float 0;
#X coords 0 1.02 882 -1.02 200 80 1 0 0;
#X restore 895 38 graph;
#N canvas 0 0 450 300 (subpatch) 0;
#X array spectrum 259 float 0;
#X coords 0 0.51 258 -0.008 259 130 1;
#X restore 838 190 graph;
#X text 903 126 ---- 0.02 seconds ----;
#X text 878 317 2;
#X text 909 317 4;
#X text 848 317 0;
#X text 888 333 -- partial number --;
#X text 958 20 WAVEFORM;
#X text 942 168 SPECTRUM;
#X text 1108 302 0;
#X text 1109 184 0.5;
#X text 941 317 6;
#X text 974 317 8;
#X text 1002 317 10;
#X text 1034 317 12;
#X text 1066 317 14;
#X obj 741 163 tgl 15 0 empty empty empty 17 7 0 10 -258113 -1 -1 1
1;
#X obj 53 68 +~;
#X obj 82 68 +~;
#X obj 624 177 /~ 2;
#X obj 635 153 /~ 2;
#X obj 623 99 r~ __fx_adcdirect_R;
#X obj 635 124 r~ __fx_adcdirect_L;
#X obj 569 246 route 1 2 3;
#N canvas 48 209 628 452 spectrum_analyzer 0;
#X obj 29 71 inlet~;
#X obj 39 102 rfft~;
#X obj 39 135 *~;
#X obj 70 135 *~;
#X obj 39 165 sqrt~;
#X obj 39 191 biquad~ 0 0 0 0 1;
#X obj 39 215 /~ 4096;
#X obj 29 305 tabwrite~ signal;
#X obj 268 320 tabwrite~ spectrum;
#X obj 241 112 inlet;
#X obj 241 263 metro 40;
#X text 304 263 25fps;
#X obj 241 286 t b b;
#X obj 241 354 s spec_write_done;
#X obj 342 120 block~ 4096 1;
#X connect 0 0 1 0;
#X connect 0 0 7 0;
#X connect 1 0 2 0;
#X connect 1 0 2 1;
#X connect 1 1 3 0;
#X connect 1 1 3 1;
#X connect 2 0 4 0;
#X connect 3 0 4 0;
#X connect 4 0 5 0;
#X connect 5 0 6 0;
#X connect 6 0 8 0;
#X connect 9 0 10 0;
#X connect 10 0 7 0;
#X connect 10 0 12 0;
#X connect 12 0 13 0;
#X connect 12 1 8 0;
#X restore 624 201 pd spectrum_analyzer;
#X obj 53 42 *~;
#X obj 81 42 *~;
#X obj 97 6 tgl 15 1 empty empty empty 17 7 0 10 -258113 -1 -1 1 1
;
#X obj 104 482 s volume;
#X floatatom 671 14 5 0 0 0 - - -;
#X obj 671 54 s FX;
#X obj 133 34 clip~ -1 1;
#X obj 217 34 clip~ -1 1;
#X obj 134 8 inlet~;
#X obj 217 8 inlet~;
#X text 181 10 aux;
#X msg 155 195 clear;
#X obj 128 173 t f b;
#X msg 165 173 connect 0 \$1;
#X obj 54 173 matrix~ 1 5;
#X obj 51 240 +~;
#X text 575 414 uses: cyclone \, mapping;
#X obj 276 179 loadbang;
#X msg 276 201 0;
#X obj 330 28 openpanel;
#X obj 329 11 bng 15 250 50 0 empty empty empty 17 7 0 10 -258113 -1
-1;
#X msg 330 50 open \$1;
#X msg 447 31 rewind;
#X obj 289 364 rhythm_estimator x;
#X obj 894 39 cnv 15 200 80 empty empty empty 20 12 0 14 -13381 -66577
0;
#X obj 838 191 cnv 15 258 130 empty empty empty 20 12 0 14 -13381 -66577
0;
#X connect 0 0 100 0;
#X connect 0 1 101 0;
#X connect 4 0 11 0;
#X connect 5 0 39 0;
#X connect 5 0 74 0;
#X connect 6 0 3 0;
#X connect 7 0 2 0;
#X connect 7 0 123 0;
#X connect 8 0 9 0;
#X connect 10 0 12 0;
#X connect 11 0 10 1;
#X connect 12 0 45 0;
#X connect 14 0 11 1;
#X connect 14 0 22 0;
#X connect 15 0 1 0;
#X connect 15 0 103 0;
#X connect 16 0 15 1;
#X connect 17 0 18 0;
#X connect 18 0 15 0;
#X connect 19 0 18 1;
#X connect 20 0 21 0;
#X connect 20 0 112 0;
#X connect 23 0 31 0;
#X connect 24 0 8 0;
#X connect 25 0 24 1;
#X connect 26 0 25 0;
#X connect 26 0 23 1;
#X connect 27 0 23 0;
#X connect 28 0 27 0;
#X connect 29 0 27 1;
#X connect 30 0 28 1;
#X connect 31 0 33 0;
#X connect 32 0 31 1;
#X connect 33 0 8 0;
#X connect 34 0 28 0;
#X connect 34 0 29 0;
#X connect 35 0 30 0;
#X connect 35 0 29 1;
#X connect 36 0 114 0;
#X connect 37 0 114 0;
#X connect 38 0 115 0;
#X connect 38 1 115 0;
#X connect 38 2 115 0;
#X connect 38 3 115 0;
#X connect 39 0 7 0;
#X connect 40 0 39 0;
#X connect 41 0 39 0;
#X connect 42 0 39 0;
#X connect 43 0 39 0;
#X connect 45 0 17 0;
#X connect 47 0 20 0;
#X connect 49 0 51 0;
#X connect 50 0 52 0;
#X connect 55 0 64 0;
#X connect 56 0 64 0;
#X connect 58 0 55 0;
#X connect 58 0 59 0;
#X connect 60 0 56 0;
#X connect 60 0 61 0;
#X connect 64 0 92 0;
#X connect 64 0 62 0;
#X connect 64 1 63 0;
#X connect 64 1 93 0;
#X connect 64 2 61 0;
#X connect 65 0 66 0;
#X connect 65 1 67 0;
#X connect 68 0 69 0;
#X connect 68 1 70 0;
#X connect 71 0 72 0;
#X connect 71 1 73 0;
#X connect 74 1 6 0;
#X connect 74 4 98 0;
#X connect 91 0 99 1;
#X connect 92 0 53 0;
#X connect 92 0 36 0;
#X connect 93 0 54 0;
#X connect 93 0 37 0;
#X connect 94 0 99 0;
#X connect 95 0 99 0;
#X connect 96 0 94 0;
#X connect 97 0 95 0;
#X connect 98 0 65 0;
#X connect 98 1 68 0;
#X connect 98 2 71 0;
#X connect 100 0 92 0;
#X connect 101 0 93 0;
#X connect 102 0 100 1;
#X connect 102 0 101 1;
#X connect 104 0 105 0;
#X connect 106 0 92 0;
#X connect 107 0 93 1;
#X connect 108 0 106 0;
#X connect 109 0 107 0;
#X connect 111 0 114 0;
#X connect 112 0 113 0;
#X connect 112 1 111 0;
#X connect 113 0 114 0;
#X connect 114 0 115 1;
#X connect 114 1 38 0;
#X connect 114 2 38 1;
#X connect 114 3 38 2;
#X connect 114 4 38 3;
#X connect 115 0 10 0;
#X connect 115 0 4 0;
#X connect 115 0 5 0;
#X connect 115 0 48 0;
#X connect 117 0 118 0;
#X connect 118 0 112 0;
#X connect 119 0 121 0;
#X connect 120 0 119 0;
#X connect 121 0 64 0;
#X connect 122 0 64 0;
#X connect 123 0 50 0;
#X connect 123 1 24 0;
#X connect 123 1 49 0;
