#N canvas 442 289 470 320 10;
#X declare -lib ggee;
#X obj 18 80 biquad~;
#X obj 19 262 outlet~;
#X obj 18 16 inlet~;
#X obj 72 104 biquad~;
#X obj 72 262 outlet~;
#X obj 128 128 biquad~;
#X obj 128 262 outlet~;
#X obj 184 152 biquad~;
#X obj 184 262 outlet~;
#X obj 314 63 bng 15 250 50 0 empty empty empty 0 -6 0 8 -262144 -1
-1;
#X obj 331 62 loadbang;
#X obj 311 29 import ggee;
#X obj 128 104 ggee/bandpass 600 5;
#X obj 184 128 ggee/highpass 1000 20;
#X obj 71 16 inlet~;
#X obj 126 15 inlet~;
#X obj 182 15 inlet~;
#X text 303 258 uses: ggee;
#X obj 18 56 ggee/lowpass 250 4;
#X obj 72 80 ggee/bandpass 400 5;
#X connect 0 0 1 0;
#X connect 2 0 0 0;
#X connect 3 0 4 0;
#X connect 5 0 6 0;
#X connect 7 0 8 0;
#X connect 9 0 12 0;
#X connect 9 0 13 0;
#X connect 9 0 18 0;
#X connect 9 0 19 0;
#X connect 10 0 9 0;
#X connect 12 0 5 0;
#X connect 13 0 7 0;
#X connect 14 0 3 0;
#X connect 15 0 5 0;
#X connect 16 0 7 0;
#X connect 18 0 0 0;
#X connect 19 0 3 0;
