#N canvas 770 433 442 440 10;
#X obj 13 207 pix_film;
#X obj 61 238 unpack;
#X floatatom 61 266 5 0 0 0 - - -;
#X obj 126 91 metro 40;
#X obj 125 30 inlet;
#X obj 316 30 inlet;
#X obj 316 126 /;
#X msg 316 103 1000;
#X obj 316 79 t b f;
#X text 80 30 on/off;
#X text 351 28 speed (fps);
#X obj 126 142 counter;
#X obj 207 31 inlet;
#X text 248 30 moviefile;
#X obj 207 91 t b s;
#X msg 207 118 0;
#X obj 183 308 /;
#X obj 183 335 outlet;
#X obj 234 120 prepend open;
#X obj 13 340 outlet;
#X obj 110 187 switch;
#X obj 289 268 *;
#X obj 83 163 + 1;
#X obj 185 184 loadbang;
#X msg 185 207 1;
#X obj 289 242 / 128;
#X obj 181 255 - 1;
#X obj 93 61 == 0;
#X obj 23 59 loadbang;
#X obj 13 177 shunt;
#X msg 23 80 1;
#X obj 13 142 color 1 1 1;
#X obj 40 312 pix_set 1 1;
#X msg 103 289 0 0 0 0;
#X obj 125 61 t b f f;
#X obj 13 30 inlet;
#X obj 83 142 r ms\$1;
#X obj 289 219 r cpos_\$1;
#X obj 103 92 tgl 15 0 empty empty empty 17 7 0 10 -258113 -1 -1 0
1;
#X obj 358 220 r hop\$1;
#X obj 358 243 *;
#X msg 358 277 jam \$1;
#X floatatom 357 322 5 0 0 0 - - -;
#X connect 0 0 19 0;
#X connect 0 1 1 0;
#X connect 1 0 2 0;
#X connect 1 0 26 0;
#X connect 2 0 16 1;
#X connect 3 0 11 0;
#X connect 4 0 34 0;
#X connect 5 0 8 0;
#X connect 6 0 3 1;
#X connect 7 0 6 0;
#X connect 8 0 7 0;
#X connect 8 1 6 1;
#X connect 11 0 20 1;
#X connect 12 0 14 0;
#X connect 14 0 15 0;
#X connect 14 1 18 0;
#X connect 15 0 11 0;
#X connect 16 0 17 0;
#X connect 18 0 0 0;
#X connect 20 0 16 0;
#X connect 20 0 0 1;
#X connect 21 0 20 2;
#X connect 22 0 20 0;
#X connect 23 0 24 0;
#X connect 24 0 20 0;
#X connect 25 0 21 0;
#X connect 26 0 21 1;
#X connect 26 0 11 4;
#X connect 26 0 40 1;
#X connect 27 0 29 1;
#X connect 28 0 30 0;
#X connect 29 0 0 0;
#X connect 29 1 32 0;
#X connect 30 0 29 1;
#X connect 32 0 19 0;
#X connect 33 0 32 1;
#X connect 34 0 33 0;
#X connect 34 1 27 0;
#X connect 34 2 3 0;
#X connect 35 0 29 0;
#X connect 36 0 22 0;
#X connect 37 0 25 0;
#X connect 38 0 3 0;
#X connect 39 0 40 0;
#X connect 40 0 41 0;
#X connect 40 0 42 0;
#X connect 41 0 11 0;
