#N canvas 714 642 393 379 10;
#X obj 51 19 inlet;
#X obj 242 19 inlet;
#X text 6 19 on/off;
#X text 277 17 speed (fps);
#X obj 133 20 inlet;
#X text 174 19 moviefile;
#X obj 173 305 outlet;
#X obj 4 310 outlet;
#X obj 4 97 gemhead \$1;
#X obj 4 148 movieplayer_core \$1;
#X obj 243 250 sel 0;
#X obj 184 101 bng 15 100 10 0 empty empty empty 17 7 0 10 -258113
-1 -1;
#X connect 0 0 9 1;
#X connect 1 0 9 3;
#X connect 4 0 9 2;
#X connect 8 0 9 0;
#X connect 9 0 7 0;
#X connect 9 1 6 0;
#X connect 9 1 10 0;
#X connect 10 0 11 0;
#X coords 0 -1 1 1 100 15 1 100 100;
