#N canvas 775 299 304 318 10;
#X obj 28 148 spigot;
#X obj 61 36 inlet;
#X obj 28 273 outlet;
#X obj 106 36 inlet~;
#X obj 28 184 pix_sig2pix~ 640 480;
#X obj 131 95 block~ 307200 256;
#X obj 28 110 gemhead 60;
#X connect 0 0 4 0;
#X connect 1 0 0 1;
#X connect 3 0 4 0;
#X connect 3 0 4 1;
#X connect 3 0 4 2;
#X connect 4 0 2 0;
#X connect 6 0 0 0;
