#N canvas 750 213 408 474 10;
#X obj 28 278 pix_texture;
#X obj 28 188 spigot;
#X obj 61 36 inlet;
#X obj 28 313 outlet;
#X obj 99 37 inlet~;
#X obj 28 150 gemhead 60;
#X obj 161 181 loadbang;
#X obj 91 313 outlet;
#X obj 28 224 pix_sig2pix~ 42 42;
#X obj 160 151 block~ 1764;
#X obj 231 27 inlet;
#X obj 99 129 *~ 1;
#X obj 231 90 sel red white;
#X obj 291 306 outlet;
#X msg 231 112 0;
#X msg 268 112 1;
#X msg 307 236 set red;
#X msg 258 204 set white;
#X obj 231 61 symbol;
#X floatatom 161 204 5 0 0 0 - - -;
#X msg 161 225 quality \$1;
#X connect 0 0 3 0;
#X connect 0 1 7 0;
#X connect 1 0 8 0;
#X connect 2 0 1 1;
#X connect 4 0 8 0;
#X connect 4 0 8 3;
#X connect 4 0 11 0;
#X connect 5 0 1 0;
#X connect 6 0 19 0;
#X connect 8 0 0 0;
#X connect 10 0 18 0;
#X connect 11 0 8 1;
#X connect 11 0 8 2;
#X connect 12 0 14 0;
#X connect 12 0 17 0;
#X connect 12 1 15 0;
#X connect 12 1 16 0;
#X connect 14 0 11 1;
#X connect 15 0 11 1;
#X connect 16 0 13 0;
#X connect 17 0 13 0;
#X connect 18 0 12 0;
#X connect 19 0 20 0;
#X connect 20 0 0 0;
