#N canvas 798 547 964 461 10;
#X obj 246 19 inlet;
#X obj 129 47 r bonkbonk;
#X obj 129 86 spigot;
#X obj 20 19 inlet;
#X obj 129 277 textfile;
#X obj 129 152 bng 15 250 50 0 empty empty empty 17 7 0 10 -262144
-1 -1;
#X msg 169 236 print;
#X msg 174 173 rewind;
#X floatatom 18 225 5 0 0 0 - - -;
#X floatatom 54 225 5 0 0 0 - - -;
#X floatatom 172 441 5 0 0 0 - - -;
#X obj 129 323 prepend text;
#X floatatom 91 225 5 0 0 0 - - -;
#X msg 321 399 font \$1;
#X obj 321 380 openpanel;
#X obj 321 363 bng 15 250 50 0 empty empty empty 0 -6 0 8 -262144 -1
-1;
#X msg 393 81 justify center;
#X obj 20 247 translateXYZ 0 0 1;
#X obj 20 281 alpha 1;
#X obj 721 139 select helvetica fraktur;
#X obj 721 393 outlet;
#X msg 721 342 set fraktur;
#X msg 791 365 set helvetica;
#X obj 721 43 inlet;
#X obj 393 56 loadbang;
#X obj 721 78 symbol;
#X obj 395 115 r volume;
#X obj 355 199 r font_dir;
#X msg 322 286 font \$1/nonfree/helvetica/HelveticaCom-Compressed.ttf
;
#X msg 321 338 font \$1/Fraktur/07_Contemporary/Struktur/struktur.ttf
;
#X obj 313 19 inlet;
#X obj 322 262 symbol;
#X obj 321 313 symbol;
#X obj 20 179 rotateXYZ;
#X obj 172 301 int;
#X obj 395 136 / 10;
#X obj 559 127 line;
#X obj 559 79 * 4;
#X obj 591 52 random 4;
#X obj 591 80 pow 2;
#X obj 574 15 r duration;
#X obj 559 39 int;
#X obj 517 39 t b b;
#X obj 59 349 pix_texture;
#X obj 20 305 shunt 2;
#X obj 20 122 gemhead 70;
#X obj 133 348 r _sigtex;
#X msg 256 297 repeat 1;
#X obj 129 439 text3d;
#X obj 355 224 symbol;
#X msg 559 102 1 \, 0 \$1;
#X obj 558 148 *;
#X obj 558 169 * 4;
#X msg 143 204 read text.txt;
#X msg 234 173 text;
#X obj 129 123 cellular/countfilter;
#X connect 0 0 55 1;
#X connect 1 0 2 0;
#X connect 2 0 55 0;
#X connect 3 0 2 1;
#X connect 3 0 45 0;
#X connect 4 0 11 0;
#X connect 4 1 7 0;
#X connect 5 0 4 0;
#X connect 5 0 34 0;
#X connect 5 0 42 0;
#X connect 6 0 4 0;
#X connect 7 0 4 0;
#X connect 8 0 17 1;
#X connect 9 0 17 2;
#X connect 10 0 48 1;
#X connect 11 0 48 0;
#X connect 12 0 17 3;
#X connect 13 0 48 0;
#X connect 14 0 13 0;
#X connect 15 0 14 0;
#X connect 16 0 48 0;
#X connect 17 0 18 0;
#X connect 18 0 44 0;
#X connect 19 0 21 0;
#X connect 19 0 31 0;
#X connect 19 1 22 0;
#X connect 19 1 32 0;
#X connect 21 0 20 0;
#X connect 22 0 20 0;
#X connect 23 0 25 0;
#X connect 24 0 53 0;
#X connect 24 0 16 0;
#X connect 24 0 54 0;
#X connect 25 0 19 0;
#X connect 26 0 35 0;
#X connect 27 0 49 0;
#X connect 28 0 48 0;
#X connect 29 0 48 0;
#X connect 30 0 44 1;
#X connect 31 0 28 0;
#X connect 32 0 29 0;
#X connect 33 0 17 0;
#X connect 34 0 10 0;
#X connect 35 0 34 1;
#X connect 36 0 51 1;
#X connect 36 0 51 0;
#X connect 37 0 50 0;
#X connect 38 0 39 0;
#X connect 39 0 37 1;
#X connect 40 0 41 1;
#X connect 41 0 37 0;
#X connect 42 0 41 0;
#X connect 42 1 38 0;
#X connect 43 0 48 0;
#X connect 44 0 48 0;
#X connect 44 1 43 0;
#X connect 45 0 33 0;
#X connect 46 0 43 1;
#X connect 47 0 43 0;
#X connect 49 0 31 1;
#X connect 49 0 32 1;
#X connect 50 0 36 0;
#X connect 51 0 52 0;
#X connect 52 0 9 0;
#X connect 53 0 4 0;
#X connect 54 0 48 0;
#X connect 55 0 5 0;
