#N canvas 891 238 728 783 10;
#X declare -lib iem_tab;
#X obj 243 272 t f f;
#X obj 399 329 int;
#X obj 399 350 change;
#X obj 243 250 int;
#X obj 243 169 t b b;
#X msg 270 194 0;
#X obj 243 223 until;
#X msg 243 194 256;
#X obj 270 250 + 1;
#X obj 243 128 bng 15 250 50 0 empty empty empty 17 7 0 10 -262144
-1 -1;
#X obj 399 449 route 0 1 2 3 4 5 6 7;
#X floatatom 358 177 5 0 0 0 - - -;
#X obj 204 95 r spec_write_done;
#X obj 399 309 / 32;
#X obj 228 326 f;
#X obj 228 353 pack f f;
#X floatatom 420 240 5 0 0 0 - - -;
#X msg 420 215 32;
#X obj 420 190 loadbang;
#X obj 399 420 pack f f;
#X obj 243 301 - 31;
#X obj 274 301 - 1;
#X obj 399 484 vsl 8 80 0 1 0 0 empty empty empty 0 -9 0 10 -262144
-1 -1 0 1;
#X obj 409 484 vsl 8 80 0 1 0 0 fft_2 empty empty 0 -9 0 10 -262144
-1 -1 0 1;
#X obj 420 484 vsl 8 80 0 1 0 0 fft_3 empty empty 0 -9 0 10 -262144
-1 -1 0 1;
#X obj 431 484 vsl 8 80 0 1 0 0 fft_5 empty empty 0 -9 0 10 -262144
-1 -1 0 1;
#X obj 441 484 vsl 8 80 0 1 0 0 empty empty empty 0 -9 0 10 -262144
-1 -1 0 1;
#X obj 452 484 vsl 8 80 0 1 0 0 empty empty empty 0 -9 0 10 -262144
-1 -1 0 1;
#X obj 463 484 vsl 8 80 0 1 0 0 empty empty empty 0 -9 0 10 -262144
-1 -1 0 1;
#X obj 473 484 vsl 8 80 0 1 0 0 empty empty empty 0 -9 0 10 -262144
-1 -1 0 1;
#X obj 229 442 clip 0 1;
#X obj 229 552 *;
#X obj 229 465 t f b f;
#X obj 268 488 - 1;
#X obj 268 532 pow 2;
#X obj 268 510 abs;
#X obj 268 553 * 10;
#X obj 399 373 t f b f;
#X floatatom 492 384 5 0 0 0 - - -;
#X text 443 332 todo: smaller slices in the lower range;
#X obj 438 395 + 10;
#X obj 24 292 rectangle 5 0.1;
#X obj 24 261 translateXYZ 0 1 0;
#X obj 24 361 rectangle 5 0.1;
#X obj 24 330 translateXYZ 0 1 0;
#X obj 24 426 rectangle 5 0.1;
#X obj 24 395 translateXYZ 0 1 0;
#X obj 24 491 rectangle 5 0.1;
#X obj 24 460 translateXYZ 0 1 0;
#X obj 24 552 rectangle 5 0.1;
#X obj 24 521 translateXYZ 0 1 0;
#X obj 24 618 rectangle 5 0.1;
#X obj 24 587 translateXYZ 0 1 0;
#X obj 24 679 rectangle 5 0.1;
#X obj 24 648 translateXYZ 0 1 0;
#X obj 229 411 - 0.003;
#X obj 24 220 rectangle 5 0.1;
#X floatatom 67 127 5 0 0 0 - - -;
#X obj 138 261 + 0.1;
#X obj 139 330 + 0.1;
#X obj 138 395 + 0.1;
#X obj 139 460 + 0.1;
#X obj 139 521 + 0.1;
#X obj 140 587 + 0.1;
#X obj 140 648 + 0.1;
#X obj 24 0 inlet;
#X obj 204 145 spigot;
#X obj 165 18 r volume;
#X obj 165 80 / 127;
#X obj 574 31 import iem_tab;
#X obj 228 383 tab_max_index spectrum;
#X msg 67 103 7;
#X obj 67 80 loadbang;
#X obj 24 156 color 0 0 0;
#X obj 347 113 select black white;
#X msg 399 140 1 1 1;
#X msg 347 140 0 0 0;
#X obj 347 24 inlet;
#X msg 347 688 set white;
#X msg 346 663 set black;
#X obj 347 712 outlet;
#X obj 347 84 prepend symbol;
#X obj 24 189 translateXYZ 0 -3.5 1;
#X floatatom 138 135 5 0 0 0 - - -;
#X obj 24 24 gemhead 99;
#X connect 0 0 20 0;
#X connect 0 1 13 0;
#X connect 1 0 2 0;
#X connect 2 0 37 0;
#X connect 3 0 0 0;
#X connect 3 0 8 0;
#X connect 4 0 7 0;
#X connect 4 1 5 0;
#X connect 5 0 3 0;
#X connect 6 0 3 0;
#X connect 7 0 6 0;
#X connect 8 0 3 1;
#X connect 9 0 4 0;
#X connect 10 0 22 0;
#X connect 10 0 56 2;
#X connect 10 0 58 0;
#X connect 10 1 23 0;
#X connect 10 1 41 2;
#X connect 10 1 59 0;
#X connect 10 2 24 0;
#X connect 10 2 43 2;
#X connect 10 2 60 0;
#X connect 10 3 25 0;
#X connect 10 3 45 2;
#X connect 10 3 61 0;
#X connect 10 4 26 0;
#X connect 10 4 47 2;
#X connect 10 4 62 0;
#X connect 10 5 27 0;
#X connect 10 5 49 2;
#X connect 10 5 63 0;
#X connect 10 6 28 0;
#X connect 10 6 51 2;
#X connect 10 6 64 0;
#X connect 10 7 29 0;
#X connect 10 7 53 2;
#X connect 11 0 55 1;
#X connect 12 0 66 0;
#X connect 13 0 1 0;
#X connect 14 0 15 0;
#X connect 15 0 70 0;
#X connect 16 0 13 1;
#X connect 16 0 15 1;
#X connect 16 0 21 0;
#X connect 17 0 16 0;
#X connect 18 0 17 0;
#X connect 19 0 10 0;
#X connect 20 0 14 1;
#X connect 21 0 20 1;
#X connect 30 0 32 0;
#X connect 31 0 19 1;
#X connect 32 0 31 0;
#X connect 32 2 33 0;
#X connect 33 0 35 0;
#X connect 34 0 36 0;
#X connect 35 0 34 0;
#X connect 36 0 31 1;
#X connect 37 0 19 0;
#X connect 37 1 14 0;
#X connect 37 2 40 0;
#X connect 38 0 40 1;
#X connect 40 0 36 1;
#X connect 41 0 44 0;
#X connect 42 0 41 0;
#X connect 43 0 46 0;
#X connect 44 0 43 0;
#X connect 45 0 48 0;
#X connect 46 0 45 0;
#X connect 47 0 50 0;
#X connect 48 0 47 0;
#X connect 49 0 52 0;
#X connect 50 0 49 0;
#X connect 51 0 54 0;
#X connect 52 0 51 0;
#X connect 54 0 53 0;
#X connect 55 0 30 0;
#X connect 56 0 42 0;
#X connect 57 0 56 1;
#X connect 57 0 41 1;
#X connect 57 0 43 1;
#X connect 57 0 45 1;
#X connect 57 0 47 1;
#X connect 57 0 49 1;
#X connect 57 0 51 1;
#X connect 57 0 53 1;
#X connect 58 0 42 2;
#X connect 59 0 44 2;
#X connect 60 0 46 2;
#X connect 61 0 48 2;
#X connect 62 0 50 2;
#X connect 63 0 52 2;
#X connect 64 0 54 2;
#X connect 65 0 66 1;
#X connect 65 0 84 0;
#X connect 66 0 4 0;
#X connect 67 0 68 0;
#X connect 68 0 58 1;
#X connect 68 0 59 1;
#X connect 68 0 60 1;
#X connect 68 0 61 1;
#X connect 68 0 62 1;
#X connect 68 0 63 1;
#X connect 68 0 64 1;
#X connect 70 2 55 0;
#X connect 71 0 57 0;
#X connect 72 0 71 0;
#X connect 73 0 82 0;
#X connect 74 0 76 0;
#X connect 74 0 78 0;
#X connect 74 1 75 0;
#X connect 74 1 79 0;
#X connect 75 0 73 1;
#X connect 76 0 73 1;
#X connect 77 0 81 0;
#X connect 78 0 80 0;
#X connect 79 0 80 0;
#X connect 81 0 74 0;
#X connect 82 0 56 0;
#X connect 83 0 82 3;
#X connect 84 0 73 0;
