#N canvas 865 244 687 299 10;
#X obj 118 24 inlet;
#X obj 178 52 r bumm;
#X obj 250 53 r zack;
#X obj 48 29 inlet;
#X msg 134 155 1;
#X obj 48 195 spigot 1;
#X obj 134 127 switch 3;
#X obj 164 156 del 40;
#X msg 164 178 0;
#X obj 93 95 == 0;
#X obj 220 155 sel 0;
#X msg 220 183 stop;
#X obj 474 26 inlet;
#X obj 118 54 t f f f;
#X obj 48 240 outlet;
#X obj 322 54 r retakt;
#X connect 0 0 13 0;
#X connect 1 0 6 1;
#X connect 2 0 6 2;
#X connect 3 0 5 0;
#X connect 4 0 5 1;
#X connect 5 0 14 0;
#X connect 6 0 4 0;
#X connect 6 0 7 0;
#X connect 7 0 8 0;
#X connect 8 0 5 1;
#X connect 9 0 5 1;
#X connect 10 0 11 0;
#X connect 11 0 7 0;
#X connect 12 0 7 1;
#X connect 13 0 9 0;
#X connect 13 1 10 0;
#X connect 13 2 6 0;
#X connect 15 0 6 3;
