#N canvas 286 403 368 659 10;
#X floatatom 17 60 5 0 0 0 - - -;
#X obj 17 33 inlet;
#X obj 186 31 r video_dir;
#X obj 147 525 outlet;
#X obj 147 376 prepend;
#X obj 147 407 list-l2s /;
#X obj 147 494 prepend putvideodir;
#X obj 147 439 t a b;
#X msg 174 462 clear;
#X obj 298 528 outlet;
#X obj 147 345 symbol;
#X obj 68 62 r init_clipdir;
#X obj 17 90 select 1 2 3 4 5 6 7 8 9 10 11 12 13 14 15;
#X msg 17 119 example;
#X msg 33 145 loops;
#X connect 0 0 12 0;
#X connect 1 0 0 0;
#X connect 2 0 4 1;
#X connect 4 0 5 0;
#X connect 5 0 7 0;
#X connect 6 0 3 0;
#X connect 7 0 6 0;
#X connect 7 1 8 0;
#X connect 8 0 3 0;
#X connect 10 0 4 0;
#X connect 10 0 9 0;
#X connect 11 0 12 0;
#X connect 12 0 13 0;
#X connect 12 1 14 0;
#X connect 13 0 10 0;
#X connect 14 0 10 0;
