#N canvas 525 125 1285 830 12;
#X declare -lib unauthorized;
#X declare -lib iem_tab;
#X declare -lib ggee;
#N canvas 785 367 750 625 blending 0;
#X obj 187 593 outlet;
#X obj 20 15 inlet;
#X text 103 74 blend mode;
#X text 117 89 0 = off;
#X text 118 102 1 = alpha;
#X text 117 115 2 = add;
#X text 118 128 3 = multiply;
#X text 118 141 4 = hard light;
#X text 118 154 5 = overlay;
#X text 118 168 6 = substract;
#X obj 345 359 change;
#X floatatom 345 382 5 0 0 0 - - -;
#X msg 20 114 blendMode \$1;
#X msg 130 509 print;
#X obj 20 87 i;
#X floatatom 87 27 5 0 0 0 - - -;
#X obj 187 508 glsl_program;
#X obj 300 357 change;
#X floatatom 300 380 5 0 0 0 - - -;
#X obj 300 407 pack;
#X obj 345 407 t b f;
#X msg 250 424 link;
#X msg 145 345 print;
#X msg 147 312 print;
#X obj 187 195 gemhead 55;
#X obj 187 312 glsl_vertex;
#X obj 187 345 glsl_fragment;
#X msg 235 479 link \$1 \$2;
#X obj 85 194 loadbang;
#N canvas 242 260 450 300 onebang 0;
#X obj 120 71 inlet;
#X obj 120 151 outlet;
#X obj 120 120 t b;
#X obj 120 100 change;
#X msg 161 71 set -1;
#X obj 161 11 gemhead;
#X obj 161 51 route 0;
#X obj 161 31 route gem_state;
#X connect 0 0 3 0;
#X connect 2 0 1 0;
#X connect 3 0 2 0;
#X connect 4 0 3 0;
#X connect 5 0 7 0;
#X connect 6 0 4 0;
#X connect 7 0 6 0;
#X restore 340 547 pd onebang;
#X msg 340 510 tex0 0;
#X msg 387 510 texture1 1;
#X msg 458 510 texture2 2;
#X floatatom 480 402 4 0 0 1 width - -;
#X floatatom 490 384 4 0 0 1 height - -;
#X floatatom 500 366 4 0 0 1 bytes/pixel - -;
#X floatatom 510 349 5 0 0 1 coulorspace - -;
#X obj 470 328 pix_info . . . .;
#X msg 493 210 open ../shaders/caleidoscope.vert;
#X msg 493 237 open ../shaders/caleidoscope.frag;
#X msg 475 112 effect \$1;
#X msg 49 467 push \$1;
#X floatatom 49 434 5 0 0 0 - - -;
#X obj 97 353 tgl 15 0 empty coord_effect empty 17 7 0 10 -258113 -1
-1 0 1;
#X msg 174 249 open ../shaders/QmultiBlend.vert;
#X obj 49 328 r level;
#X obj 49 354 spigot;
#X obj 49 393 / 100;
#X floatatom 76 293 5 0 0 0 - - -;
#X msg 174 276 open ../shaders/QmultiBlendEffects.frag;
#X floatatom 48 256 5 0 0 0 - - -;
#X obj 475 19 inlet;
#X text 559 57 effect;
#X text 582 74 0 = off;
#X text 584 88 1 = blip_vert;
#X obj 97 328 > 0;
#X text 584 103 2 = blip_horz;
#X obj 377 16 inlet;
#X obj 277 15 r coord_effect;
#X obj 429 60 *;
#X obj 277 74 *;
#X obj 460 60 spigot;
#X obj 503 60 == 0;
#X connect 1 0 14 0;
#X connect 10 0 11 0;
#X connect 11 0 20 0;
#X connect 12 0 16 0;
#X connect 13 0 16 0;
#X connect 14 0 12 0;
#X connect 15 0 14 0;
#X connect 16 0 0 0;
#X connect 16 1 29 0;
#X connect 17 0 18 0;
#X connect 18 0 19 0;
#X connect 19 0 27 0;
#X connect 20 0 19 0;
#X connect 20 1 19 1;
#X connect 21 0 16 0;
#X connect 22 0 26 0;
#X connect 23 0 25 0;
#X connect 24 0 25 0;
#X connect 25 0 26 0;
#X connect 25 1 17 0;
#X connect 26 0 16 0;
#X connect 26 1 10 0;
#X connect 27 0 16 0;
#X connect 28 0 49 0;
#X connect 28 0 44 0;
#X connect 29 0 30 0;
#X connect 29 0 31 0;
#X connect 29 0 32 0;
#X connect 31 0 16 0;
#X connect 32 0 16 0;
#X connect 37 1 33 0;
#X connect 37 2 34 0;
#X connect 37 3 35 0;
#X connect 37 4 36 0;
#X connect 38 0 25 0;
#X connect 39 0 26 0;
#X connect 40 0 16 0;
#X connect 41 0 16 0;
#X connect 42 0 41 0;
#X connect 43 0 46 1;
#X connect 44 0 25 0;
#X connect 45 0 46 0;
#X connect 46 0 47 0;
#X connect 47 0 42 0;
#X connect 48 0 47 1;
#X connect 49 0 26 0;
#X connect 50 0 47 0;
#X connect 51 0 59 1;
#X connect 51 0 61 0;
#X connect 55 0 43 0;
#X connect 57 0 60 1;
#X connect 57 0 62 0;
#X connect 58 0 60 0;
#X connect 59 0 40 0;
#X connect 59 0 55 0;
#X connect 60 0 59 0;
#X connect 61 0 40 0;
#X connect 61 0 55 0;
#X connect 62 0 61 1;
#X restore 569 484 pd blending;
#X obj 335 362 hsl 80 10 0 1 0 0 empty empty empty -2 -8 0 10 -162280
-1 -1 0 1;
#X symbolatom 811 282 55 0 0 0 - - -;
#X obj 774 362 hsl 80 10 0 1 0 0 empty empty empty -2 -8 0 10 -162280
-1 -1 0 1;
#X obj 601 625 rotateXYZ;
#X obj 1055 17 import unauthorized;
#X obj 622 11 tgl 15 0 empty empty fullscreen -64 7 0 8 -258113 -1
-258113 0 1;
#X obj 622 34 s fullscreen;
#X obj 25 164 vsl 15 130 0 127 0 0 level empty empty 0 -8 0 8 -128992
-1 -1 0 1;
#X obj 42 164 vsl 15 130 0 128 0 1 envsen envcorr empty 0 -8 0 8 -258113
-1 -1 0 1;
#X floatatom 155 164 5 1 32 1 bars - multiblubb;
#X floatatom 26 301 1 0 0 0 - ftype -;
#X floatatom 155 182 5 0 3 1 filter - ftype;
#X obj 350 318 nbx 2 14 1 6 0 0 bank_01 xbank_01 bank_01 0 -6 1 10
-260097 -1 -260097 1 256;
#X obj 789 318 nbx 2 14 1 6 0 1 bank_02 xbank_02 bank_02 0 -6 1 10
-4034 -1 -4034 1 256;
#N canvas 291 221 251 167 scratch 0;
#X obj 23 23 inlet;
#X obj 19 2 tgl 15 0 mscratch ms2 empty 0 -6 0 8 -28609 -1 -1 0 1;
#X obj 2 2 tgl 15 0 mscratch ms1 empty 0 -6 0 8 -260546 -1 -1 0 1;
#X obj 23 60 moviescratch2;
#X obj 10 131 s scalefactor;
#X obj 10 109 / 64;
#X obj 10 88 spigot;
#X obj 58 87 r scale_env;
#X connect 0 0 3 0;
#X connect 0 0 6 0;
#X connect 1 0 3 2;
#X connect 2 0 3 1;
#X connect 5 0 4 0;
#X connect 6 0 5 0;
#X connect 7 0 6 1;
#X coords 0 -1 1 1 40 20 1 0 0;
#X restore 25 138 pd scratch;
#N canvas 666 550 304 106 joystick 0;
#X obj 1 1 tgl 15 1 joy_1 empty empty 20 8 0 8 -260293 -1 -1 1 1;
#X obj 18 1 tgl 15 1 joy_2 empty empty 20 8 0 8 -4037 -1 -1 1 1;
#N canvas 418 291 773 563 joystick1 0;
#X obj 463 348 bng 20 250 50 0 6_b empty empty 0 -6 0 8 -262144 -1
-1;
#X obj 215 315 bng 15 250 50 0 0_b empty empty 0 -6 0 8 -262144 -1
-1;
#X obj 91 250 bng 15 250 50 0 1_b empty empty 0 -6 0 8 -262144 -1 -1
;
#X obj 91 265 bng 15 250 50 0 2_b empty empty 0 -6 0 8 -262144 -1 -1
;
#X obj 394 245 bng 15 250 50 0 3_b empty empty 0 -6 0 8 -262144 -1
-1;
#X obj 168 15 tgl 15 0 empty empty empty 1 12 1 9 -262144 -1 -1 1 1
;
#X msg 231 34 open \$1;
#X obj 231 14 hradio 15 1 1 20 \$0-device-number empty choose_a_device
0 -6 1 8 -260097 -1 -1 6;
#X obj 194 14 nbx 2 14 -1e+37 1e+37 0 0 empty \$0-device-number empty
0 -6 0 14 -166441 -1 -1 5 256;
#X msg 117 15 print;
#X obj 134 88 route abs key ff;
#X obj 596 39 print abs:;
#X obj 596 60 print key:;
#X obj 596 83 print ff:;
#X obj 394 260 bng 15 250 50 0 4_b empty empty 0 -6 0 8 -262144 -1
-1;
#X obj 302 314 bng 15 250 50 0 5_b empty empty 0 -6 0 8 -262144 -1
-1;
#X obj 491 301 bng 20 250 50 0 7_b empty empty 0 -6 0 8 -262144 -1
-1;
#X obj 518 411 bng 20 250 50 0 8_b empty empty 0 -6 0 8 -262144 -1
-1;
#X obj 545 348 bng 20 250 50 0 9_b empty empty 0 -6 0 8 -262144 -1
-1;
#X obj 169 205 bng 15 250 50 0 rbonk empty empty 0 -6 0 8 -262144 -1
-1;
#X obj 188 206 bng 15 250 50 0 lbonk empty empty 0 -6 0 8 -262144 -1
-1;
#X obj 437 349 tgl 20 0 6_bt empty empty 0 -6 0 8 -262144 -1 -1 0 1
;
#X obj 516 301 tgl 20 0 7_bt empty empty 0 -6 0 8 -262144 -1 -1 0 1
;
#X obj 491 411 tgl 20 0 8_bt empty empty 0 -6 0 8 -262144 -1 -1 0 1
;
#X obj 571 348 tgl 20 0 9_bt empty empty 0 -6 0 8 -262144 -1 -1 0 1
;
#X obj 53 319 bng 20 250 50 0 up empty empty 0 -6 0 8 -262144 -1 -1
;
#X obj 13 350 bng 20 250 50 0 left empty empty 0 -6 0 8 -262144 -1
-1;
#X obj 52 385 bng 20 250 50 0 down empty empty 0 -6 0 8 -262144 -1
-1;
#X obj 92 351 bng 20 250 50 0 right empty empty 0 -6 0 8 -262144 -1
-1;
#X obj 127 353 hsl 128 15 0 255 0 0 left_x empty empty -2 -6 0 8 -262144
-1 -1 0 1;
#X obj 182 296 vsl 15 128 255 0 0 0 left_y empty empty 0 -8 0 8 -262144
-1 -1 0 1;
#X obj 282 353 hsl 128 15 0 255 0 0 right_x empty empty -2 -6 0 8 -262144
-1 -1 0 1;
#X obj 337 296 vsl 15 128 255 0 0 0 right_y empty empty 0 -8 0 8 -262144
-1 -1 0 1;
#X obj 549 39 spigot;
#X obj 549 60 spigot;
#X obj 549 83 spigot;
#X obj 549 17 tgl 15 0 empty empty debug 20 8 0 8 -262144 -1 -1 0 1
;
#X obj 374 244 tgl 15 0 3_t empty empty 0 -6 0 8 -262144 -1 -1 0 1
;
#X obj 110 251 tgl 15 0 1_t empty empty 0 -6 0 8 -262144 -1 -1 0 1
;
#X obj 20 -2 inlet;
#X obj 374 260 tgl 15 0 4_t empty empty 0 -6 0 8 -262144 -1 -1 0 1
;
#X obj 110 266 tgl 15 0 2_t empty empty 0 -6 0 8 -262144 -1 -1 0 1
;
#X obj 169 177 route btn_8 btn_6 btn_4 btn_7 btn_5 btn_9 btn_3 btn_0
btn_2 btn_1;
#X obj 134 108 route abs_x abs_y abs_hat0x abs_hat0y abs_z abs_rz;
#X obj 215 156 route -1 1;
#X obj 282 156 route -1 1;
#X obj 216 129 change;
#X obj 282 130 change;
#X obj 215 253 change;
#X obj 302 253 change;
#X obj 91 225 change;
#X obj 134 64 hid \$1;
#X connect 5 0 51 0;
#X connect 6 0 51 0;
#X connect 7 0 6 0;
#X connect 9 0 51 0;
#X connect 10 0 43 0;
#X connect 10 1 33 0;
#X connect 10 1 42 0;
#X connect 10 2 34 0;
#X connect 10 3 35 0;
#X connect 33 0 11 0;
#X connect 34 0 12 0;
#X connect 35 0 13 0;
#X connect 36 0 33 1;
#X connect 36 0 34 1;
#X connect 36 0 35 1;
#X connect 39 0 5 0;
#X connect 42 0 19 0;
#X connect 42 0 48 0;
#X connect 42 1 19 0;
#X connect 42 1 50 0;
#X connect 42 2 3 0;
#X connect 42 2 19 0;
#X connect 42 2 41 0;
#X connect 42 3 19 0;
#X connect 42 3 37 0;
#X connect 42 3 4 0;
#X connect 42 4 19 0;
#X connect 42 4 40 0;
#X connect 42 4 14 0;
#X connect 42 5 19 0;
#X connect 42 5 49 0;
#X connect 42 6 0 0;
#X connect 42 6 20 0;
#X connect 42 6 21 0;
#X connect 42 7 16 0;
#X connect 42 7 20 0;
#X connect 42 7 22 0;
#X connect 42 8 17 0;
#X connect 42 8 20 0;
#X connect 42 8 23 0;
#X connect 42 9 18 0;
#X connect 42 9 20 0;
#X connect 42 9 24 0;
#X connect 43 0 29 0;
#X connect 43 1 30 0;
#X connect 43 2 46 0;
#X connect 43 3 47 0;
#X connect 43 4 32 0;
#X connect 43 5 31 0;
#X connect 44 0 26 0;
#X connect 44 1 28 0;
#X connect 45 0 25 0;
#X connect 45 1 27 0;
#X connect 46 0 44 0;
#X connect 47 0 45 0;
#X connect 48 0 1 0;
#X connect 49 0 15 0;
#X connect 50 0 2 0;
#X connect 50 0 38 0;
#X connect 51 0 10 0;
#X restore 1 25 pd joystick1 5;
#N canvas 771 222 698 511 joystick2 0;
#X obj 463 348 bng 20 250 50 0 6_b_2 empty 6 0 -6 0 10 -262144 -1 -1
;
#X obj 215 315 bng 15 250 50 0 0_b_2 empty empty 0 -6 0 8 -262144 -1
-1;
#X obj 91 250 bng 15 250 50 0 1_b_2 empty empty 0 -6 0 8 -262144 -1
-1;
#X obj 91 265 bng 15 250 50 0 2_b_2 empty empty 0 -6 0 8 -262144 -1
-1;
#X obj 394 245 bng 15 250 50 0 3_b_2 empty empty 0 -6 0 8 -262144 -1
-1;
#X obj 168 15 tgl 15 0 empty empty empty 1 12 1 9 -262144 -1 -1 1 1
;
#X msg 231 34 open \$1;
#X obj 231 14 hradio 15 1 1 20 \$0-device-number empty choose_a_device
0 -6 1 9 -4034 -1 -1 5;
#X obj 195 14 nbx 2 14 -1e+37 1e+37 0 0 empty \$0-device-number empty
0 -6 0 14 -166441 -1 -1 5 256;
#X msg 117 15 print;
#X obj 134 83 route abs key ff;
#X obj 587 37 print abs:;
#X obj 587 58 print key:;
#X obj 587 81 print ff:;
#X obj 394 260 bng 15 250 50 0 4_b_2 empty empty 0 -6 0 8 -262144 -1
-1;
#X obj 302 314 bng 15 250 50 0 5_b_2 empty empty 0 -6 0 8 -262144 -1
-1;
#X obj 491 301 bng 20 250 50 0 7_b_2 empty 7 -12 0 0 10 -262144 -1
-1;
#X obj 518 411 bng 20 250 50 0 8_b_2 empty 8 0 -6 0 8 -262144 -1 -1
;
#X obj 545 348 bng 20 250 50 0 9_b_2 empty empty 10 0 0 1.65798e+07
-262144 -1 -262144;
#X obj 169 177 route btn_9 btn_6 btn_4 btn_7 btn_5 btn_8 btn_3 btn_0
btn_2 btn_1;
#X obj 169 205 bng 15 250 50 0 rbonk empty empty 0 -6 0 8 -262144 -1
-1;
#X obj 188 206 bng 15 250 50 0 lbonk empty empty 0 -6 0 8 -262144 -1
-1;
#X obj 437 349 tgl 20 0 6_bt_2 empty empty 0 -6 0 8 -262144 -1 -1 0
1;
#X obj 516 301 tgl 20 0 7_bt_2 empty empty 0 -6 0 8 -262144 -1 -1 0
1;
#X obj 491 411 tgl 20 0 8_bt_2 empty empty 0 -6 0 8 -262144 -1 -1 0
1;
#X obj 571 348 tgl 20 0 9_bt_2 empty 9 20 0 0 10 -262144 -1 -1 0 1
;
#X obj 53 319 bng 20 250 50 0 up_2 empty empty 0 -6 0 8 -262144 -1
-1;
#X obj 13 350 bng 20 250 50 0 left_2 empty empty 0 -6 0 8 -262144 -1
-1;
#X obj 52 385 bng 20 250 50 0 down_2 empty empty 0 -6 0 8 -262144 -1
-1;
#X obj 92 351 bng 20 250 50 0 right_2 empty empty 0 -6 0 8 -262144
-1 -1;
#X obj 127 353 hsl 128 15 0 255 0 0 left_x_2 empty empty -2 -6 0 8
-262144 -1 -1 0 1;
#X obj 182 296 vsl 15 128 255 0 0 0 left_y_2 empty empty 0 -8 0 8 -262144
-1 -1 0 1;
#X obj 282 353 hsl 128 15 0 255 0 0 right_x_2 empty empty -2 -6 0 8
-262144 -1 -1 0 1;
#X obj 337 296 vsl 15 128 255 0 0 0 right_y_2 empty empty 0 -8 0 8
-262144 -1 -1 0 1;
#X obj 540 37 spigot;
#X obj 540 58 spigot;
#X obj 540 81 spigot;
#X obj 540 15 tgl 15 0 empty empty debug 20 8 0 8 -262144 -1 -1 0 1
;
#X obj 374 244 tgl 15 0 3_t_2 empty empty 0 -6 0 8 -262144 -1 -1 0
1;
#X obj 110 251 tgl 15 0 1_t_2 empty empty 0 -6 0 8 -262144 -1 -1 0
1;
#X obj 8 -1 inlet;
#X obj 374 260 tgl 15 0 4_t_2 empty empty 0 -6 0 8 -262144 -1 -1 0
1;
#X obj 110 267 tgl 15 0 2_t_2 empty empty 0 -6 0 8 -262144 -1 -1 0
1;
#X obj 541 105 spigot;
#X obj 587 106 print;
#X obj 134 103 route abs_x abs_y abs_hat0x abs_hat0y abs_z abs_rz;
#X obj 233 155 route -1 1;
#X obj 303 155 route -1 1;
#X obj 233 129 change;
#X obj 303 130 change;
#X obj 215 255 change;
#X obj 302 255 change;
#X obj 91 222 change;
#X obj 134 64 hid \$1;
#X connect 5 0 53 0;
#X connect 6 0 53 0;
#X connect 7 0 6 0;
#X connect 9 0 53 0;
#X connect 10 0 43 0;
#X connect 10 0 45 0;
#X connect 10 1 19 0;
#X connect 10 1 34 0;
#X connect 10 2 35 0;
#X connect 10 3 36 0;
#X connect 19 0 20 0;
#X connect 19 0 50 0;
#X connect 19 1 20 0;
#X connect 19 1 52 0;
#X connect 19 2 3 0;
#X connect 19 2 20 0;
#X connect 19 2 42 0;
#X connect 19 3 4 0;
#X connect 19 3 20 0;
#X connect 19 3 38 0;
#X connect 19 4 14 0;
#X connect 19 4 20 0;
#X connect 19 4 41 0;
#X connect 19 5 20 0;
#X connect 19 5 51 0;
#X connect 19 6 0 0;
#X connect 19 6 21 0;
#X connect 19 6 22 0;
#X connect 19 7 16 0;
#X connect 19 7 21 0;
#X connect 19 7 23 0;
#X connect 19 8 17 0;
#X connect 19 8 21 0;
#X connect 19 8 24 0;
#X connect 19 9 18 0;
#X connect 19 9 21 0;
#X connect 19 9 25 0;
#X connect 34 0 11 0;
#X connect 35 0 12 0;
#X connect 36 0 13 0;
#X connect 37 0 34 1;
#X connect 37 0 35 1;
#X connect 37 0 36 1;
#X connect 37 0 43 1;
#X connect 40 0 5 0;
#X connect 43 0 44 0;
#X connect 45 0 30 0;
#X connect 45 1 31 0;
#X connect 45 2 48 0;
#X connect 45 3 49 0;
#X connect 45 4 33 0;
#X connect 45 5 32 0;
#X connect 46 0 27 0;
#X connect 46 1 29 0;
#X connect 47 0 26 0;
#X connect 47 1 28 0;
#X connect 48 0 46 0;
#X connect 49 0 47 0;
#X connect 50 0 1 0;
#X connect 51 0 15 0;
#X connect 52 0 2 0;
#X connect 52 0 39 0;
#X connect 53 0 10 0;
#X restore 18 48 pd joystick2 15;
#X connect 0 0 2 0;
#X connect 1 0 3 0;
#X coords 0 -1 1 1 40 16 1 0 0;
#X restore 189 118 pd joystick;
#X obj 410 316 hsl 128 15 1 127 0 0 speed1 xspeed1 speed_01 -2 -6 0
8 -260419 -1 -260097 3125 1;
#X obj 850 317 hsl 128 15 1 200 0 0 speed2 xspeed2 speed_02 -2 -6 0
8 -4038 -1 -4034 1978 1;
#X obj 332 318 tgl 15 1 xlonoff1 lonoff1 empty 0 -6 0 8 -260353 -1
-1 0 1;
#X obj 772 317 tgl 15 1 xlonoff2 lonoff2 empty 0 -6 0 8 -12225 -1 -1
0 1;
#X obj 343 473 tgl 15 1 empty xblock3D_1 3D_rotation 16 8 0 8 -260097
-1 -260097 1 1;
#X obj 785 473 tgl 15 1 empty xblock3D_2 3D_rotation 16 8 0 8 -12225
-1 -4034 1 1;
#N canvas 302 398 1383 585 Wii 0;
#X obj 10 10 tgl 15 1 empty empty empty 0 -6 0 8 -257985 -1 -1 0 1
;
#X obj 10 33 == 0;
#X obj 43 33 s w1;
#X obj 10 55 s w0;
#X obj 120 115 spigot;
#X obj 260 77 r w1;
#X obj 361 37 line;
#X obj 426 37 line;
#X obj 483 39 line;
#X obj 118 -85 r c1;
#X obj 167 -85 r c2;
#X obj 217 -85 r c3;
#X obj 102 27 switch;
#X obj 151 27 switch;
#X obj 201 26 switch;
#X msg 385 -43 1;
#X msg 425 -43 2;
#X text 463 -95 two modes of interpretation;
#X obj 505 -33 s effect5;
#X obj 385 -86 r c10;
#X obj 426 -86 r c11;
#X msg 503 -74 1;
#X msg 505 -53 0;
#X floatatom 566 46 5 0 0 0 - - -;
#X obj 566 112 s circ;
#X obj 599 -49 == 0;
#X obj 1127 94 r c5;
#X obj 723 141 spigot;
#X obj 833 116 r w1;
#X obj 723 163 abs;
#X obj 723 58 r c1;
#X obj 871 58 r c2;
#X obj 1020 58 r c3;
#X obj 424 215 s ms1;
#X obj 566 21 mapping/autoscale 0 1;
#X obj 720 -246 r c6;
#X obj 720 -97 s up;
#X obj 785 -246 r c7;
#X obj 785 -97 s down;
#X obj 848 -246 r c8;
#X obj 848 -97 s left;
#X obj 910 -247 r c9;
#X obj 910 -98 s right;
#X obj 720 -220 select 1;
#X obj 785 -220 select 1;
#X obj 848 -220 select 1;
#X obj 910 -220 select 1;
#X obj 566 -5 spigot;
#X obj 566 90 line;
#X obj 566 69 pack 1 200;
#X obj 44 55 s ms1;
#X text 564 135 move-scratch;
#X text 137 244 dimensions;
#X obj 1146 158 s 9_bt;
#X obj 768 17 r c4;
#X text 798 -56 clip switch;
#X obj 160 115 spigot;
#X obj 201 115 spigot;
#X obj 910 -133 gate 2;
#X obj 949 -183 r wii_channel;
#X obj 848 -133 gate 2;
#X obj 785 -133 gate 2;
#X obj 720 -133 gate 2;
#X obj 753 -77 s up_2;
#X obj 818 -77 s down_2;
#X obj 881 -77 s left_2;
#X obj 943 -78 s right_2;
#X obj 424 186 gate 2;
#X obj 424 158 r wii_channel;
#X obj 457 215 s ms2;
#X text 113 -268 for OSX see [wii_osx];
#X obj 116 -198 wii_linux;
#X obj 116 -172 tgl 15 0 empty empty empty 17 7 0 10 -258113 -1 -1
0 1;
#X msg 116 -235 discover;
#X msg 176 -235 connect;
#X obj 272 145 r wii_channel;
#X obj 121 192 s 3Dx_1;
#X obj 170 192 s 3Dy_1;
#X obj 219 192 s 3Dz_1;
#X obj 121 219 s 3Dx_2;
#X obj 170 219 s 3Dy_2;
#X obj 219 219 s 3Dz_2;
#X obj 742 226 s scalefactor_1;
#X obj 762 256 s scalefactor_2;
#X obj 723 194 shunt 3;
#X obj 723 90 expr sqrt(pow($f1 \, 2) + pow($f2 \, 2) + pow($f3 \,
2));
#X obj 774 193 r wii_channel;
#X obj 723 280 s scalefactor;
#X obj 12 186 &&;
#X obj 0 113 r wiichannel;
#X obj 0 137 == 0;
#X obj 0 158 t b f;
#X obj 12 218 s __XBlock3D;
#X obj 120 146 shunt 3;
#X obj 170 146 shunt 3;
#X obj 219 146 shunt 3;
#X obj 120 171 s 3Dx;
#X obj 170 171 s 3Dy;
#X obj 219 171 s 3Dz;
#X obj 37 186 sel 0;
#X msg 72 186 0;
#X text 799 20 A button => size by total motion;
#X obj 595 219 outlet;
#X obj 325 -65 loadbang;
#X obj 116 -128 outlet;
#X obj 1102 -179 r c13;
#X obj 1061 -179 r c14;
#X obj 1061 -116 select 1;
#X obj 1102 -145 select 1;
#N canvas 792 198 313 360 switchbanks 0;
#X msg -129 27 \; 3_t 1;
#X msg -168 28 \; 3_t 0;
#X msg -45 26 \; 3_t 1;
#X obj -65 67 s right;
#X msg -84 27 \; 3_t 0;
#X obj -149 68 s left;
#X obj -135 104 t b b b;
#X obj 3 104 t b b b;
#X obj 22 171 s right;
#X obj -116 171 s left;
#X msg -135 131 \; 3_t_2 0;
#X msg -80 131 \; 3_t_2 1;
#X msg 3 131 \; 3_t_2 0;
#X msg 58 131 \; 3_t_2 1;
#X obj -168 -4 t b b b;
#X obj -84 -5 t b b b;
#X obj -168 -40 gate 2;
#X obj -84 -41 gate 2;
#X obj -168 -89 inlet;
#X obj -106 -90 inlet;
#X obj -51 -89 inlet;
#X connect 6 0 10 0;
#X connect 6 1 9 0;
#X connect 6 2 11 0;
#X connect 7 0 12 0;
#X connect 7 1 8 0;
#X connect 7 2 13 0;
#X connect 14 0 1 0;
#X connect 14 1 5 0;
#X connect 14 2 0 0;
#X connect 15 0 4 0;
#X connect 15 1 3 0;
#X connect 15 2 2 0;
#X connect 16 0 14 0;
#X connect 16 1 6 0;
#X connect 17 0 15 0;
#X connect 17 1 7 0;
#X connect 18 0 16 0;
#X connect 18 0 17 0;
#X connect 19 0 16 1;
#X connect 20 0 17 1;
#X restore 1021 -78 pd switchbanks;
#X obj 385 -65 sel 1;
#X obj 426 -65 sel 1;
#X msg 229 -235 disconnect;
#X obj 52 -236 inlet;
#X obj 723 117 - 0.5;
#X obj 118 -58 lop 0.5 200;
#X obj 167 -33 lop 0.5 200;
#X obj 217 -59 lop 0.5 200;
#X obj 807 116 &&;
#X obj 833 136 t b f;
#X obj 768 116 t f f;
#X obj 768 141 sel 0;
#X msg 768 162 1;
#X obj 361 -1 pack 0 50;
#X obj 426 18 pack 0 50;
#X obj 483 -1 pack 0 50;
#X obj 1166 94 r wii_channel;
#X obj 1166 189 s 9_bt_2;
#X obj 1127 124 shunt 3;
#X obj 1127 225 s output_model;
#X obj 201 87 * 360;
#X obj 160 86 * 360;
#X obj 120 87 * 360;
#X connect 0 0 1 0;
#X connect 0 0 2 0;
#X connect 0 0 50 0;
#X connect 0 0 88 0;
#X connect 1 0 3 0;
#X connect 4 0 93 0;
#X connect 5 0 4 1;
#X connect 5 0 56 1;
#X connect 5 0 57 1;
#X connect 6 0 12 2;
#X connect 7 0 13 2;
#X connect 8 0 14 2;
#X connect 9 0 115 0;
#X connect 10 0 116 0;
#X connect 11 0 117 0;
#X connect 12 0 132 0;
#X connect 13 0 131 0;
#X connect 14 0 130 0;
#X connect 15 0 12 0;
#X connect 15 0 13 0;
#X connect 15 0 14 0;
#X connect 15 0 102 0;
#X connect 16 0 12 0;
#X connect 16 0 13 0;
#X connect 16 0 14 0;
#X connect 16 0 102 0;
#X connect 19 0 110 0;
#X connect 20 0 111 0;
#X connect 21 0 18 0;
#X connect 21 0 25 0;
#X connect 21 0 67 1;
#X connect 22 0 18 0;
#X connect 22 0 25 0;
#X connect 22 0 67 1;
#X connect 23 0 49 0;
#X connect 25 0 47 1;
#X connect 26 0 128 0;
#X connect 27 0 29 0;
#X connect 28 0 119 0;
#X connect 29 0 84 0;
#X connect 30 0 85 0;
#X connect 31 0 85 1;
#X connect 32 0 85 2;
#X connect 34 0 23 0;
#X connect 35 0 43 0;
#X connect 37 0 44 0;
#X connect 39 0 45 0;
#X connect 41 0 46 0;
#X connect 43 0 62 1;
#X connect 44 0 61 1;
#X connect 45 0 60 1;
#X connect 46 0 58 1;
#X connect 47 0 34 0;
#X connect 48 0 24 0;
#X connect 49 0 48 0;
#X connect 54 0 120 0;
#X connect 56 0 94 0;
#X connect 57 0 95 0;
#X connect 58 0 42 0;
#X connect 58 1 66 0;
#X connect 59 0 58 0;
#X connect 59 0 60 0;
#X connect 59 0 61 0;
#X connect 59 0 62 0;
#X connect 59 0 109 0;
#X connect 60 0 40 0;
#X connect 60 1 65 0;
#X connect 61 0 38 0;
#X connect 61 1 64 0;
#X connect 62 0 36 0;
#X connect 62 1 63 0;
#X connect 67 0 33 0;
#X connect 67 1 69 0;
#X connect 68 0 67 0;
#X connect 71 0 72 0;
#X connect 72 0 104 0;
#X connect 73 0 71 0;
#X connect 74 0 71 0;
#X connect 75 0 93 1;
#X connect 75 0 94 1;
#X connect 75 0 95 1;
#X connect 84 0 87 0;
#X connect 84 1 82 0;
#X connect 84 2 83 0;
#X connect 85 0 114 0;
#X connect 85 0 47 0;
#X connect 86 0 84 1;
#X connect 88 0 92 0;
#X connect 88 0 99 0;
#X connect 89 0 90 0;
#X connect 90 0 91 0;
#X connect 91 0 88 0;
#X connect 91 1 88 1;
#X connect 93 0 96 0;
#X connect 93 1 76 0;
#X connect 93 2 79 0;
#X connect 94 0 97 0;
#X connect 94 1 77 0;
#X connect 94 2 80 0;
#X connect 95 0 98 0;
#X connect 95 1 78 0;
#X connect 95 2 81 0;
#X connect 99 0 100 0;
#X connect 100 0 96 0;
#X connect 100 0 97 0;
#X connect 100 0 98 0;
#X connect 103 0 110 0;
#X connect 105 0 108 0;
#X connect 106 0 107 0;
#X connect 107 0 109 1;
#X connect 108 0 109 2;
#X connect 110 0 15 0;
#X connect 110 0 21 0;
#X connect 111 0 16 0;
#X connect 111 0 22 0;
#X connect 111 0 123 0;
#X connect 111 0 124 0;
#X connect 111 0 125 0;
#X connect 112 0 71 0;
#X connect 113 0 71 0;
#X connect 114 0 27 0;
#X connect 115 0 12 1;
#X connect 116 0 13 1;
#X connect 117 0 14 1;
#X connect 118 0 27 1;
#X connect 119 0 118 0;
#X connect 119 1 118 1;
#X connect 120 0 121 0;
#X connect 120 1 118 0;
#X connect 121 0 122 0;
#X connect 122 0 84 0;
#X connect 123 0 6 0;
#X connect 124 0 7 0;
#X connect 125 0 8 0;
#X connect 126 0 128 1;
#X connect 128 0 129 0;
#X connect 128 1 53 0;
#X connect 128 2 127 0;
#X connect 130 0 57 0;
#X connect 131 0 56 0;
#X connect 132 0 4 0;
#X coords 0 -1 1 1 15 15 1 10 10;
#X restore 272 117 pd Wii;
#N canvas 468 298 1423 529 joystick_ctrl 0;
#X obj 213 22 r left_x;
#X obj 272 22 r left_y;
#X obj 331 22 r right_x;
#X obj 396 22 r right_y;
#X obj 516 78 r 6_bt;
#X obj 575 78 r 7_bt;
#X obj 634 78 r 8_bt;
#X obj 131 9 loadbang;
#X msg 131 28 0;
#X obj 696 39 r w1;
#X obj 650 39 spigot;
#X obj 566 0 r c4;
#X msg 650 19 0;
#X obj 566 19 t b b;
#X msg 679 19 1;
#X obj 512 0 r flash;
#X obj 650 0 delay 20;
#X floatatom 878 319 5 0 0 0 - - -;
#X msg 878 353 1;
#X obj 878 335 t b f;
#X obj 1226 31 r 1_t;
#X obj 879 220 r triggernote;
#X obj 879 241 - 36;
#X obj 879 262 spigot;
#X text 912 245 kettle connection;
#X floatatom 833 336 3 1 2 2 layer layer -;
#X obj 878 301 bng 15 250 50 0 empty empty re-trigger 0 -6 0 8 -262144
-1 -262144;
#X obj 833 352 + 1;
#X text 213 6 knubbelachsen;
#X text 513 62 [ ];
#X text 579 62 ^;
#X text 699 62 O;
#X text 635 62 x;
#X obj 1226 96 s ms1;
#X obj 1294 94 s ms2;
#X obj 1226 75 tgl 15 0 empty empty empty 0 -6 0 8 -262144 -1 -1 0
1;
#X obj 1294 74 tgl 15 0 empty empty empty 0 -6 0 8 -262144 -1 -1 0
1;
#X obj 926 263 tgl 15 0 empty kettle kettle 20 3 0 8 -262144 -1 -262144
0 1;
#X floatatom 822 66 3 1 2 2 bank bank_01 -;
#X obj 822 89 - 1;
#X floatatom 905 68 3 1 2 2 bank bank_02 -;
#X obj 905 91 - 1;
#X obj 1294 30 r 1_t_2;
#X text 1225 8 moviescratch on/off;
#X text 515 295 [ ];
#X text 581 295 ^;
#X text 701 295 O;
#X text 637 295 x;
#X obj 518 311 r 6_bt_2;
#X obj 577 311 r 7_bt_2;
#X obj 636 311 r 8_bt_2;
#X obj 701 311 r 9_bt_2;
#X text 211 147 knubbelachsen2;
#X obj 985 35 r up;
#X obj 981 73 r down;
#X obj 947 54 r left;
#X obj 1011 54 r right;
#X text 1067 55 joyin;
#X obj 1065 108 r up_2;
#X obj 1059 154 r down_2;
#X obj 1012 131 r left_2;
#X obj 1101 132 r right_2;
#X text 1171 133 joy2;
#X obj 1137 219 r speed1;
#X obj 1077 306 spigot;
#X obj 1077 327 t b b;
#X obj 1077 384 + 1;
#X msg 1077 349 -1;
#X obj 1226 52 sel 1;
#X obj 1294 51 sel 1;
#X obj 1077 285 sel 1;
#X obj 1150 285 sel 1;
#X obj 1077 240 r 2_t;
#X obj 1150 241 r 4_t;
#X obj 1150 306 spigot;
#X obj 1150 326 t b b;
#X msg 1150 347 1;
#X obj 1077 418 s xspeed1;
#X obj 1114 348 int 1;
#X obj 1066 263 spigot;
#X obj 1142 262 spigot;
#X obj 1226 306 spigot;
#X obj 1226 327 t b b;
#X obj 1226 371 + 1;
#X msg 1226 349 -1;
#X obj 1226 285 sel 1;
#X obj 1299 285 sel 1;
#X obj 1299 306 spigot;
#X obj 1256 371 >= 0;
#X obj 1299 327 t b b;
#X msg 1299 347 1;
#X obj 1256 348 int 1;
#X obj 1215 263 spigot;
#X obj 1291 262 spigot;
#X text 1047 200 speed setting via joystick;
#X obj 1226 403 s xspeed2;
#X obj 1286 219 r speed2;
#X obj 1226 240 r 2_t_2;
#X obj 1299 241 r 4_t_2;
#X obj 213 335 r 3_t;
#X obj 283 357 tgl 15 0 empty empty empty 0 -6 0 8 -262144 -1 -1 0
1;
#X obj 213 356 tgl 15 0 empty empty empty 0 -6 0 8 -262144 -1 -1 0
1;
#X obj 427 329 tgl 15 0 empty empty empty 0 -6 0 8 -262144 -1 -1 0
1;
#X obj 427 346 sel 1;
#X obj 350 311 r 0_b;
#X obj 350 329 tgl 15 0 empty empty empty 0 -6 0 8 -262144 -1 -1 0
1;
#X obj 350 346 sel 1;
#X obj 350 364 s lonoff1;
#X obj 427 364 s lonoff2;
#N canvas 333 159 224 224 if_timer 0;
#X obj 41 12 inlet;
#X obj 99 19 sel 0;
#X msg 99 37 100;
#X obj 99 62 int 100;
#X obj 127 90 - 1;
#X obj 99 164 > 20;
#X obj 99 142 spigot;
#X obj 41 139 outlet;
#X obj 41 101 metro 100;
#X obj 41 78 spigot;
#X obj 41 34 t f f f;
#X obj 41 55 pipe 200;
#X msg 128 37 0;
#X floatatom 163 136 5 0 0 0 - - -;
#X obj 41 120 t b b;
#X connect 0 0 10 0;
#X connect 1 0 2 0;
#X connect 1 0 12 0;
#X connect 2 0 3 0;
#X connect 3 0 4 0;
#X connect 3 0 8 1;
#X connect 3 0 5 0;
#X connect 3 0 13 0;
#X connect 4 0 3 1;
#X connect 5 0 6 1;
#X connect 6 0 3 0;
#X connect 8 0 14 0;
#X connect 9 0 8 0;
#X connect 10 0 11 0;
#X connect 10 1 9 1;
#X connect 10 2 1 0;
#X connect 11 0 9 0;
#X connect 12 0 8 0;
#X connect 14 0 7 0;
#X connect 14 1 6 0;
#X restore 1042 219 pd if_timer 1;
#N canvas 333 159 224 224 if_timer 0;
#X obj 41 12 inlet;
#X obj 99 19 sel 0;
#X msg 99 37 100;
#X obj 99 62 int 100;
#X obj 127 90 - 1;
#X obj 99 164 > 20;
#X obj 99 142 spigot;
#X obj 41 139 outlet;
#X obj 41 101 metro 100;
#X obj 41 78 spigot;
#X obj 41 34 t f f f;
#X obj 41 55 pipe 200;
#X msg 128 37 0;
#X floatatom 163 136 5 0 0 0 - - -;
#X obj 41 120 t b b;
#X connect 0 0 10 0;
#X connect 1 0 2 0;
#X connect 1 0 12 0;
#X connect 2 0 3 0;
#X connect 3 0 4 0;
#X connect 3 0 8 1;
#X connect 3 0 5 0;
#X connect 3 0 13 0;
#X connect 4 0 3 1;
#X connect 5 0 6 1;
#X connect 6 0 3 0;
#X connect 8 0 14 0;
#X connect 9 0 8 0;
#X connect 10 0 11 0;
#X connect 10 1 9 1;
#X connect 10 2 1 0;
#X connect 11 0 9 0;
#X connect 12 0 8 0;
#X connect 14 0 7 0;
#X connect 14 1 6 0;
#X restore 1200 219 pd if_timer;
#N canvas 411 130 278 300 switchbank 0;
#X obj 17 9 inlet;
#X obj 53 33 r left;
#X obj 99 33 r right;
#X obj 17 76 spigot;
#X obj 17 33 == 0;
#X obj 17 54 s blockcs1;
#X text 91 54 block clip switching;
#X obj 65 76 spigot;
#X obj 45 160 int;
#X obj 17 94 spigot;
#X obj 65 95 spigot;
#X obj 17 113 t b b;
#X msg 47 137 -1;
#X msg 95 136 1;
#X obj 46 190 +;
#X obj 65 114 t b b;
#X obj 17 160 > 1;
#X obj 7 220 s xbank_01;
#X obj 114 95 r i;
#X floatatom 165 230 5 0 0 0 - - -;
#X obj 165 131 loadbang;
#X obj 78 161 < 10;
#X msg 165 154 13;
#X obj 170 99 r init_banks;
#X connect 0 0 4 0;
#X connect 0 0 3 1;
#X connect 0 0 7 1;
#X connect 1 0 3 0;
#X connect 2 0 7 0;
#X connect 3 0 9 0;
#X connect 4 0 5 0;
#X connect 7 0 10 0;
#X connect 8 0 14 1;
#X connect 8 0 16 0;
#X connect 8 0 17 0;
#X connect 8 0 19 0;
#X connect 8 0 21 0;
#X connect 9 0 11 0;
#X connect 10 0 15 0;
#X connect 11 0 8 0;
#X connect 11 1 12 0;
#X connect 12 0 14 0;
#X connect 13 0 14 0;
#X connect 14 0 8 1;
#X connect 15 0 8 0;
#X connect 15 1 13 0;
#X connect 16 0 9 1;
#X connect 18 0 10 1;
#X connect 18 0 9 1;
#X connect 20 0 22 0;
#X connect 21 0 10 1;
#X connect 22 0 21 1;
#X connect 23 0 21 1;
#X restore 213 378 pd switchbank 1;
#N canvas 464 25 263 292 switchbank 0;
#X obj 17 9 inlet;
#X obj 17 76 spigot;
#X obj 17 33 == 0;
#X text 91 54 block clip switching;
#X obj 65 76 spigot;
#X obj 45 160 int;
#X obj 17 94 spigot;
#X obj 65 95 spigot;
#X obj 17 113 t b b;
#X msg 47 137 -1;
#X msg 95 136 1;
#X obj 46 190 +;
#X obj 65 114 t b b;
#X obj 17 160 > 1;
#X obj 45 219 s xbank_02;
#X obj 53 33 r left_2;
#X obj 116 32 r right_2;
#X obj 17 54 s blockcs2;
#X obj 114 95 r i;
#X obj 175 141 loadbang;
#X obj 72 160 < 10;
#X msg 175 164 13;
#X obj 152 104 r init_banks;
#X connect 0 0 2 0;
#X connect 0 0 1 1;
#X connect 0 0 4 1;
#X connect 1 0 6 0;
#X connect 2 0 17 0;
#X connect 4 0 7 0;
#X connect 5 0 11 1;
#X connect 5 0 13 0;
#X connect 5 0 14 0;
#X connect 5 0 20 0;
#X connect 6 0 8 0;
#X connect 7 0 12 0;
#X connect 8 0 5 0;
#X connect 8 1 9 0;
#X connect 9 0 11 0;
#X connect 10 0 11 0;
#X connect 11 0 5 1;
#X connect 12 0 5 0;
#X connect 12 1 10 0;
#X connect 13 0 6 1;
#X connect 15 0 1 0;
#X connect 16 0 4 0;
#X connect 18 0 7 1;
#X connect 18 0 6 1;
#X connect 19 0 21 0;
#X connect 20 0 7 1;
#X connect 21 0 20 1;
#X connect 22 0 20 1;
#X restore 283 404 pd switchbank 2;
#X obj 1124 306 r i;
#X obj 1273 306 r i;
#X obj 516 119 sel 0;
#X obj 518 353 sel 0;
#X obj 518 337 s scale_env_2;
#X obj 283 336 r 3_t_2;
#X obj 427 311 r 5_b_2;
#X obj 213 87 spigot;
#X msg 131 55 1;
#X obj 46 34 tgl 15 0 empty empty empty 0 -6 0 8 -262144 -1 -1 0 1
;
#X obj 46 6 r midijoy;
#X obj 61 33 s mjoy;
#X obj 38 312 r 0_b_2;
#X obj 47 95 r 5_b;
#X obj 38 331 tgl 15 0 empty empty empty 0 -6 0 8 -262144 -1 -1 0 1
;
#X obj 47 113 tgl 15 0 empty empty empty 0 -6 0 8 -262144 -1 -1 0 1
;
#X obj 47 131 sel 1;
#X obj 38 349 sel 1;
#X obj 38 366 tgl 15 0 empty empty empty 0 -6 0 8 -262144 -1 -1 1 1
;
#X obj 47 148 tgl 15 0 empty empty empty 0 -6 0 8 -262144 -1 -1 1 1
;
#X obj 38 406 sel 0;
#X obj 47 189 sel 0;
#X obj 47 209 del 10;
#X obj 38 428 del 10;
#X msg 114 215 0;
#X msg 89 428 0;
#X obj 699 78 r 9_bt;
#X obj 1303 371 < 200;
#X obj 822 170 clipgrid2 1;
#X obj 822 192 s clip_1;
#X obj 905 191 s clip_2;
#X obj 272 86 spigot;
#X obj 365 87 spigot;
#X obj 833 414 s clip_1;
#X obj 878 439 s clip_2;
#X obj 833 382 gate 2 1;
#X msg 516 139 1;
#X msg 518 373 1;
#X msg 577 358 0;
#X msg 575 126 0;
#X obj 1106 384 > 1;
#X obj 1154 371 < 199;
#X obj 1137 406 t f;
#X obj 1290 400 t f;
#X obj 699 122 sel 1;
#X obj 699 99 change;
#X obj 636 333 change;
#X obj 213 44 expr $f1/255 * 360 - 180;
#X obj 365 44 expr $f1/255 * 360 - 180;
#X obj 272 63 expr $f1/255 * 360 - 180;
#X obj 905 170 clipgrid2 2;
#X text 103 98 joystick map;
#X obj 213 234 spigot;
#X obj 281 233 spigot;
#X obj 396 232 spigot;
#X obj 213 191 expr $f1/255 * 360 - 180;
#X obj 365 191 expr $f1/255 * 360 - 180;
#X obj 282 210 expr $f1/255 * 360 - 180;
#X obj 213 169 r left_x_2;
#X obj 282 169 r left_y_2;
#X obj 351 169 r right_x_2;
#X obj 426 169 r right_y_2;
#X obj 213 256 s 3Dx_2;
#X obj 281 256 s 3Dy_2;
#X obj 396 254 s 3Dz_2;
#X obj 213 109 s 3Dx_1;
#X obj 272 109 s 3Dy_1;
#X obj 365 109 s 3Dz_1;
#X obj 38 385 s xblock3D_2;
#X obj 57 167 s xblock3D_1;
#X obj 518 397 s scalefactor_2;
#X obj 516 162 s scalefactor_1;
#X obj 699 171 s output_model_1;
#X obj 701 404 sel 1;
#X obj 701 381 change;
#X obj 701 456 s output_model_2;
#X obj 634 101 change;
#X obj 634 208 s coord_effect;
#X obj 515 99 s scale_env_1;
#X obj 636 357 s flash;
#X obj 699 146 counter 1 3;
#X obj 701 430 counter 1 3;
#X connect 0 0 160 0;
#X connect 1 0 162 0;
#X connect 3 0 161 0;
#X connect 4 0 115 0;
#X connect 4 0 191 0;
#X connect 5 0 152 0;
#X connect 6 0 189 0;
#X connect 7 0 8 0;
#X connect 7 0 121 0;
#X connect 8 0 122 0;
#X connect 9 0 10 1;
#X connect 11 0 13 0;
#X connect 12 0 10 0;
#X connect 13 0 16 0;
#X connect 13 1 14 0;
#X connect 14 0 10 0;
#X connect 15 0 13 0;
#X connect 16 0 12 0;
#X connect 17 0 19 0;
#X connect 18 0 148 1;
#X connect 19 0 18 0;
#X connect 20 0 68 0;
#X connect 21 0 22 0;
#X connect 22 0 23 0;
#X connect 23 0 17 0;
#X connect 25 0 27 0;
#X connect 26 0 17 0;
#X connect 27 0 148 0;
#X connect 35 0 33 0;
#X connect 36 0 34 0;
#X connect 37 0 23 1;
#X connect 38 0 39 0;
#X connect 39 0 141 0;
#X connect 40 0 41 0;
#X connect 41 0 163 0;
#X connect 42 0 69 0;
#X connect 48 0 116 0;
#X connect 48 0 117 0;
#X connect 49 0 151 0;
#X connect 50 0 159 0;
#X connect 51 0 187 0;
#X connect 53 0 141 1;
#X connect 54 0 141 2;
#X connect 55 0 141 3;
#X connect 56 0 141 4;
#X connect 58 0 163 1;
#X connect 59 0 163 2;
#X connect 60 0 163 3;
#X connect 61 0 163 4;
#X connect 63 0 78 1;
#X connect 64 0 65 0;
#X connect 65 0 67 0;
#X connect 65 1 78 0;
#X connect 66 0 77 0;
#X connect 66 0 155 0;
#X connect 67 0 66 0;
#X connect 68 0 35 0;
#X connect 69 0 36 0;
#X connect 70 0 64 0;
#X connect 71 0 74 0;
#X connect 72 0 109 0;
#X connect 72 0 79 1;
#X connect 72 0 70 0;
#X connect 73 0 80 1;
#X connect 73 0 109 0;
#X connect 73 0 71 0;
#X connect 74 0 75 0;
#X connect 75 0 76 0;
#X connect 75 1 78 0;
#X connect 76 0 66 0;
#X connect 78 0 66 1;
#X connect 78 0 153 0;
#X connect 78 0 154 0;
#X connect 79 0 64 0;
#X connect 80 0 74 0;
#X connect 81 0 82 0;
#X connect 82 0 84 0;
#X connect 82 1 91 0;
#X connect 83 0 95 0;
#X connect 83 0 156 0;
#X connect 84 0 83 0;
#X connect 85 0 81 0;
#X connect 86 0 87 0;
#X connect 87 0 89 0;
#X connect 88 0 81 1;
#X connect 89 0 90 0;
#X connect 89 1 91 0;
#X connect 90 0 83 0;
#X connect 91 0 83 1;
#X connect 91 0 88 0;
#X connect 91 0 140 0;
#X connect 92 0 81 0;
#X connect 93 0 87 0;
#X connect 96 0 91 1;
#X connect 97 0 110 0;
#X connect 97 0 92 1;
#X connect 97 0 85 0;
#X connect 98 0 93 1;
#X connect 98 0 110 0;
#X connect 98 0 86 0;
#X connect 99 0 101 0;
#X connect 100 0 112 0;
#X connect 101 0 111 0;
#X connect 102 0 103 0;
#X connect 103 0 108 0;
#X connect 104 0 105 0;
#X connect 105 0 106 0;
#X connect 106 0 107 0;
#X connect 109 0 79 0;
#X connect 109 0 80 0;
#X connect 110 0 92 0;
#X connect 110 0 93 0;
#X connect 113 0 64 1;
#X connect 113 0 74 1;
#X connect 114 0 81 1;
#X connect 114 0 87 1;
#X connect 115 0 149 0;
#X connect 116 0 150 0;
#X connect 118 0 100 0;
#X connect 119 0 102 0;
#X connect 120 0 178 0;
#X connect 121 0 132 0;
#X connect 121 0 131 0;
#X connect 122 0 124 0;
#X connect 123 0 122 0;
#X connect 125 0 127 0;
#X connect 126 0 128 0;
#X connect 127 0 130 0;
#X connect 128 0 129 0;
#X connect 129 0 132 0;
#X connect 130 0 131 0;
#X connect 131 0 133 0;
#X connect 131 0 165 1;
#X connect 131 0 166 1;
#X connect 131 0 167 1;
#X connect 131 0 181 0;
#X connect 132 0 120 1;
#X connect 132 0 134 0;
#X connect 132 0 144 1;
#X connect 132 0 145 1;
#X connect 132 0 182 0;
#X connect 133 0 136 0;
#X connect 134 0 135 0;
#X connect 135 0 137 0;
#X connect 136 0 138 0;
#X connect 137 0 178 0;
#X connect 137 0 179 0;
#X connect 137 0 180 0;
#X connect 139 0 158 0;
#X connect 140 0 87 1;
#X connect 141 0 142 0;
#X connect 144 0 179 0;
#X connect 145 0 180 0;
#X connect 148 0 146 0;
#X connect 148 1 147 0;
#X connect 149 0 184 0;
#X connect 150 0 183 0;
#X connect 151 0 175 0;
#X connect 151 0 176 0;
#X connect 151 0 177 0;
#X connect 152 0 178 0;
#X connect 152 0 179 0;
#X connect 152 0 180 0;
#X connect 153 0 64 1;
#X connect 154 0 74 1;
#X connect 155 0 78 1;
#X connect 156 0 91 1;
#X connect 157 0 193 0;
#X connect 158 0 157 0;
#X connect 159 0 192 0;
#X connect 160 0 120 0;
#X connect 161 0 145 0;
#X connect 162 0 144 0;
#X connect 163 0 143 0;
#X connect 165 0 175 0;
#X connect 166 0 176 0;
#X connect 167 0 177 0;
#X connect 168 0 165 0;
#X connect 169 0 167 0;
#X connect 170 0 166 0;
#X connect 171 0 168 0;
#X connect 172 0 170 0;
#X connect 174 0 169 0;
#X connect 186 0 194 0;
#X connect 187 0 186 0;
#X connect 189 0 190 0;
#X connect 193 0 185 0;
#X connect 194 0 188 0;
#X coords 0 -1 1 1 85 16 1 100 100;
#X restore 88 119 pd joystick_ctrl;
#N canvas 828 457 394 537 init 0;
#X obj 19 15 loadbang;
#X obj 19 58 s i;
#X obj 47 59 s o;
#X msg 19 39 1;
#X msg 47 39 0;
#X obj 76 60 s wii_channel;
#X msg 76 38 2;
#X obj 20 88 loadbang;
#X obj 22 183 loadbang;
#X obj 23 336 loadbang;
#X msg 20 115 \; video_dir /home/ub/visuals/loops;
#X msg 22 208 \; grid_rows 3 \; grid_cols 5 \; scalefactor 1 \; texture_dir
/home/ub/visuals/pd/cellular/tex \; font_dir /usr/share/fonts/truetype
\; init_clipdir 1 \;;
#X msg 23 362 \; init_banks 15 \; xspeed1 32 \; xspeed2 32 \; scale_factor
80 \; filter_symbols 8 \; filter_formulas 4 \; filter_diagrams 16 \;
;
#X connect 0 0 3 0;
#X connect 0 0 4 0;
#X connect 0 0 6 0;
#X connect 3 0 1 0;
#X connect 4 0 2 0;
#X connect 6 0 5 0;
#X connect 7 0 10 0;
#X connect 8 0 11 0;
#X connect 9 0 12 0;
#X restore 998 17 pd init;
#X obj 569 346 vradio 15 1 0 7 empty blend_mode empty 0 -8 0 10 -258113
-1 -1 0;
#X obj 315 120 nbx 1 14 0 2 0 1 wii_channel x_wii_channel channel 20
10 0 8 -257985 -1 -257985 1 256;
#X obj 1016 316 tgl 15 0 empty empty empty 17 7 0 10 -4034 -1 -1 0
1;
#X msg 25 92 0;
#X msg 25 72 1;
#X msg 25 52 2;
#X msg 25 34 3;
#X obj 1041 315 r~ filtered_mic;
#X obj 618 598 nbx 4 12 -360 360 0 0 empty 3Dx empty 0 -8 0 8 -260097
-1 -1 0 256;
#X obj 656 598 nbx 4 12 -360 360 0 0 empty 3Dy empty 0 -8 0 8 -260097
-1 -1 0 256;
#X obj 695 598 nbx 4 12 -360 360 0 0 empty 3Dz empty 0 -8 0 8 -260097
-1 -1 0 256;
#X obj 369 147 vjtools/videogrid videogrid1 3 5 #F0F0F0 #0F0F0F #F1882B
mov:mpg 60 40 ;
#X obj 811 146 vjtools/videogrid videogrid2 3 5 #F0F0F0 #0F0F0F #00fb14
mov:mpg 60 40 /home/ub/visuals/loops/struktur/struktur02.mov|/home/ub/visuals/loops/struktur/fliegenpilz.mov|/home/ub/visuals/loops/struktur/maggots_03_schmetterlinge.mov|/home/ub/visuals/loops/struktur/roehre.mov|/home/ub/visuals/loops/struktur/fly_typo.mov|/home/ub/visuals/loops/struktur/machines.mov|/home/ub/visuals/loops/struktur/zaehne.mov|/home/ub/visuals/loops/struktur/niko01.mov|/home/ub/visuals/loops/struktur/lines.mov|/home/ub/visuals/loops/struktur/surreal_640.mov|/home/ub/visuals/loops/struktur/struktur01.mov|/home/ub/visuals/loops/struktur/spam_final.mov|/home/ub/visuals/loops/struktur/fehldruck.mov|/home/ub/visuals/loops/struktur/ines_small.mov|/home/ub/visuals/loops/struktur/black.mov|
;
#X msg 642 130 clear;
#N canvas 957 138 794 803 cubes 0;
#X obj 57 12 rotateXYZ 0 0 0;
#X obj 57 -167 inlet;
#X obj 57 53 scale 1 1 1;
#X floatatom 16 -47 5 0 0 0 - - -;
#X obj 134 -109 * -1;
#X obj 16 -126 loadbang;
#X msg 16 -95 1.5;
#X obj 57 -74 pix_texture;
#X obj 483 38 square 1;
#X obj 346 40 square 1;
#X obj 209 -41 rotateXYZ 0 180 0;
#X obj 209 -13 translateXYZ -2 0 0;
#X obj 346 -42 rotateXYZ 0 0 180;
#X obj 346 -14 translateXYZ -2 -2 0;
#X obj 483 -38 rotateXYZ 0 180 0;
#X obj 483 -10 translateXYZ -2 0 0;
#X obj 209 39 square 1;
#X obj 57 79 square 1;
#X obj 482 173 square 1;
#X obj 345 175 square 1;
#X obj 208 114 rotateXYZ 0 180 0;
#X obj 208 142 translateXYZ -2 0 0;
#X obj 345 113 rotateXYZ 0 0 180;
#X obj 345 141 translateXYZ -2 -2 0;
#X obj 482 117 rotateXYZ 0 180 0;
#X obj 482 145 translateXYZ -2 0 0;
#X obj 208 174 square 1;
#X obj 56 178 square 1;
#X obj 483 294 square 1;
#X obj 346 296 square 1;
#X obj 209 295 square 1;
#X obj 57 299 square 1;
#X obj 57 230 rotateXYZ 0 90 0;
#X obj 209 225 rotateXYZ 0 0 180;
#X obj 209 253 translateXYZ 0 -2 0;
#X obj 483 228 rotateXYZ 0 180 0;
#X obj 346 224 rotateXYZ 0 0 180;
#X obj 483 256 translateXYZ 0 2 0;
#X obj 346 252 translateXYZ 0 -2 -4;
#X obj 56 119 translateXYZ 0 0 2;
#X obj 483 426 square 1;
#X obj 346 428 square 1;
#X obj 209 427 square 1;
#X obj 57 431 square 1;
#X obj 209 367 rotateXYZ 0 0 180;
#X obj 209 395 translateXYZ 0 -2 0;
#X obj 483 370 rotateXYZ 0 180 0;
#X obj 346 366 rotateXYZ 0 0 180;
#X obj 483 398 translateXYZ 0 2 0;
#X obj 346 394 translateXYZ 0 -2 -4;
#X obj 57 372 rotateXYZ 90 0 0;
#X floatatom 214 -112 5 0 0 0 - - -;
#X obj 57 403 translateXYZ 0 -3 3;
#X obj 282 -146 loadbang;
#X obj 57 261 translateXYZ 1 0 3;
#X obj 57 -15 translateXYZ -1.5 -1.5 -1;
#X obj 482 545 square 1;
#X obj 345 547 square 1;
#X obj 208 546 square 1;
#X obj 56 550 square 1;
#X obj 208 486 rotateXYZ 90 0 0;
#X obj 345 485 rotateXYZ 90 0 0;
#X obj 482 489 rotateXYZ 90 0 0;
#X obj 56 491 rotateXYZ 90 0 0;
#X obj 208 515 translateXYZ 0 -1 1;
#X obj 345 513 translateXYZ 0 1 -1;
#X obj 482 517 translateXYZ 0 -1 1;
#X obj 56 522 translateXYZ 0 -1 1;
#X obj 541 38 spigot 1;
#X obj 539 173 spigot 1;
#X obj 540 293 spigot 1;
#X obj 540 424 spigot 1;
#X obj 586 -132 inlet;
#X obj 586 -101 > 0;
#X obj 614 -101 > 1;
#X obj 642 -100 > 2;
#X obj 671 -99 > 3;
#X msg 136 -146 rectangle 0 \, texunit 0;
#X connect 0 0 2 0;
#X connect 1 0 7 0;
#X connect 2 0 17 0;
#X connect 3 0 2 1;
#X connect 3 0 4 0;
#X connect 4 0 55 1;
#X connect 4 0 55 2;
#X connect 5 0 6 0;
#X connect 6 0 3 0;
#X connect 7 0 55 0;
#X connect 8 0 68 0;
#X connect 9 0 14 0;
#X connect 10 0 11 0;
#X connect 11 0 16 0;
#X connect 12 0 13 0;
#X connect 13 0 9 0;
#X connect 14 0 15 0;
#X connect 15 0 8 0;
#X connect 16 0 12 0;
#X connect 17 0 10 0;
#X connect 18 0 69 0;
#X connect 19 0 24 0;
#X connect 20 0 21 0;
#X connect 21 0 26 0;
#X connect 22 0 23 0;
#X connect 23 0 19 0;
#X connect 24 0 25 0;
#X connect 25 0 18 0;
#X connect 26 0 22 0;
#X connect 27 0 20 0;
#X connect 28 0 70 0;
#X connect 29 0 35 0;
#X connect 30 0 36 0;
#X connect 31 0 33 0;
#X connect 32 0 54 0;
#X connect 33 0 34 0;
#X connect 34 0 30 0;
#X connect 35 0 37 0;
#X connect 36 0 38 0;
#X connect 37 0 28 0;
#X connect 38 0 29 0;
#X connect 39 0 27 0;
#X connect 40 0 71 0;
#X connect 41 0 46 0;
#X connect 42 0 47 0;
#X connect 43 0 44 0;
#X connect 44 0 45 0;
#X connect 45 0 42 0;
#X connect 46 0 48 0;
#X connect 47 0 49 0;
#X connect 48 0 40 0;
#X connect 49 0 41 0;
#X connect 50 0 52 0;
#X connect 51 0 55 3;
#X connect 52 0 43 0;
#X connect 53 0 77 0;
#X connect 54 0 31 0;
#X connect 55 0 0 0;
#X connect 57 0 62 0;
#X connect 58 0 61 0;
#X connect 59 0 60 0;
#X connect 60 0 64 0;
#X connect 61 0 65 0;
#X connect 62 0 66 0;
#X connect 63 0 67 0;
#X connect 64 0 58 0;
#X connect 65 0 57 0;
#X connect 66 0 56 0;
#X connect 67 0 59 0;
#X connect 68 0 39 0;
#X connect 69 0 32 0;
#X connect 70 0 50 0;
#X connect 71 0 63 0;
#X connect 72 0 73 0;
#X connect 72 0 74 0;
#X connect 72 0 75 0;
#X connect 72 0 76 0;
#X connect 73 0 68 1;
#X connect 74 0 69 1;
#X connect 75 0 70 1;
#X connect 76 0 71 1;
#X connect 77 0 7 0;
#X restore 592 776 pd cubes;
#X obj 613 669 hsl 128 12 0 2 0 1 empty scalefactor scale -2 -8 0 9
-260097 -1 -260097 6350 1;
#X obj 569 670 scale;
#X obj 29 436 tgl 15 0 empty empty empty 17 7 0 10 -260097 -1 -1 0
1;
#X obj 80 436 tgl 15 0 empty empty empty 17 7 0 10 -260097 -1 -1 0
1;
#X obj 131 436 tgl 15 0 empty empty empty 17 7 0 10 -260097 -1 -1 0
1;
#X obj 621 727 hradio 15 1 0 3 empty output_model plane/cubes 0 -8
0 9 -260097 -1 -260097 0;
#N canvas 817 524 569 318 plane 0;
#X obj 31 14 inlet;
#X obj 31 238 rectangle 6.4 4.8;
#X obj 31 56 translateXYZ 0 0 0;
#X connect 0 0 2 0;
#X connect 2 0 1 0;
#X restore 569 751 pd plane;
#X obj 369 44 openpanel;
#X obj 369 15 bng 15 250 50 0 empty empty empty 17 7 0 10 -99865 -1
-1;
#X msg 369 67 putvideo \$1;
#N canvas 649 476 450 300 playlist 0;
#X msg 149 123 seek \$1;
#X floatatom 149 68 5 0 0 0 - - -;
#X obj 28 184 outlet;
#X obj 149 29 r clip_1;
#X obj 28 70 videodir;
#X obj 28 35 r xbank_01;
#X obj 136 183 outlet;
#X connect 0 0 2 0;
#X connect 1 0 0 0;
#X connect 3 0 1 0;
#X connect 4 0 2 0;
#X connect 4 1 6 0;
#X connect 5 0 4 0;
#X coords 0 -1 1 1 40 22 1 148 66;
#X restore 369 120 pd playlist;
#N canvas 232 136 450 300 playlist 0;
#X msg 149 123 seek \$1;
#X floatatom 149 68 5 0 0 0 - - -;
#X obj 28 184 outlet;
#X obj 28 35 r xbank_02;
#X obj 149 29 r clip_2;
#X obj 146 185 outlet;
#X obj 28 70 videodir;
#X connect 0 0 2 0;
#X connect 1 0 0 0;
#X connect 3 0 6 0;
#X connect 4 0 1 0;
#X connect 6 0 2 0;
#X connect 6 1 5 0;
#X coords 0 -1 1 1 40 22 1 148 66;
#X restore 811 114 pd playlist;
#X msg 1086 129 clear;
#X obj 811 45 openpanel;
#X obj 811 16 bng 15 250 50 0 empty empty empty 17 7 0 10 -99865 -1
-1;
#X msg 811 68 putvideo \$1;
#X symbolatom 454 122 10 0 0 0 - - -;
#X symbolatom 896 117 10 0 0 0 - - -;
#N canvas 556 360 627 296 lissajous 0;
#X msg 124 104 draw fill;
#X msg 124 81 draw point;
#X msg 124 124 draw tri;
#X msg 124 146 draw tristrip;
#X msg 123 169 draw trifan;
#X msg 123 190 draw quad;
#X obj 123 248 scopeXYZ~ 1024;
#X obj 276 129 *~ 10;
#X obj 299 151 *~ 10;
#X obj 124 54 select 1 2 3 4 5;
#X obj 277 89 r~ __fx_adcdirect_L;
#X obj 124 15 inlet;
#X obj 278 15 inlet;
#X obj 344 112 r~ __fx_adcdirect_R;
#X obj 290 175 *~;
#X obj 31 144 rotateXYZ;
#X msg 82 116 135;
#X obj 61 81 loadbang;
#X obj 197 14 inlet;
#X obj 31 14 inlet;
#X obj 31 193 color 1 1 1 1;
#X obj 31 56 gemhead 77;
#X msg 53 116 0;
#X connect 0 0 6 0;
#X connect 1 0 6 0;
#X connect 2 0 6 0;
#X connect 3 0 6 0;
#X connect 4 0 6 0;
#X connect 5 0 6 0;
#X connect 7 0 6 1;
#X connect 7 0 14 0;
#X connect 8 0 6 2;
#X connect 8 0 14 1;
#X connect 9 0 1 0;
#X connect 9 1 0 0;
#X connect 9 2 2 0;
#X connect 9 3 3 0;
#X connect 9 4 4 0;
#X connect 9 5 5 0;
#X connect 10 0 7 0;
#X connect 11 0 9 0;
#X connect 12 0 7 1;
#X connect 12 0 8 1;
#X connect 13 0 8 0;
#X connect 14 0 6 3;
#X connect 15 0 20 0;
#X connect 16 0 15 3;
#X connect 17 0 16 0;
#X connect 17 0 22 0;
#X connect 18 0 15 3;
#X connect 19 0 21 0;
#X connect 20 0 6 0;
#X connect 21 0 15 0;
#X connect 22 0 21 0;
#X restore 877 673 pd lissajous;
#X obj 877 640 tgl 15 0 empty lissajous empty 17 7 0 10 -4034 -1 -1
0 1;
#X obj 904 640 hradio 15 1 1 5 empty empty empty 0 -8 0 10 -4034 -1
-1 3;
#X obj 971 673 hsl 80 10 0 20 0 0 empty empty preamp 84 6 0 7 -4034
-1 -4034 0 1;
#X obj 934 657 hsl 80 10 0 360 0 0 empty empty rotation 84 6 0 7 -4034
-1 -4034 0 1;
#N canvas 1196 453 446 396 ringe 0;
#X obj 140 220 line;
#X obj 140 187 pack 0 0;
#X obj 155 92 delay 0;
#X obj 76 201 scale 1;
#X msg 155 121 0;
#X obj 140 33 spigot;
#X obj 37 10 inlet;
#X obj 76 160 spigot;
#X obj -1 117 loadbang;
#X msg 140 161 0;
#X obj 140 57 t b b b b b;
#X msg 243 53 1;
#X msg 243 74 0;
#X obj 311 86 r duration;
#X obj 292 15 inlet;
#X obj 199 188 f;
#X obj 211 92 f;
#X obj 76 300 color 1 1 1 1;
#X obj 76 274 translateXYZ 0 0 0.5;
#X obj 140 9 r retakt;
#X msg 180 121 1;
#X msg -1 159 draw line;
#X msg 153 350 9;
#X floatatom 225 283 5 0 0 0 - - -;
#X obj 37 54 gemhead 66;
#X obj 76 336 circle 5;
#X connect 0 0 3 1;
#X connect 1 0 0 0;
#X connect 2 0 4 0;
#X connect 2 0 11 0;
#X connect 3 0 18 0;
#X connect 4 0 7 1;
#X connect 5 0 10 0;
#X connect 6 0 5 1;
#X connect 6 0 24 0;
#X connect 7 0 3 0;
#X connect 8 0 21 0;
#X connect 8 0 22 0;
#X connect 9 0 1 0;
#X connect 10 0 9 0;
#X connect 10 1 2 0;
#X connect 10 2 20 0;
#X connect 10 3 15 0;
#X connect 10 4 12 0;
#X connect 10 4 16 0;
#X connect 11 0 5 1;
#X connect 12 0 5 1;
#X connect 13 0 16 1;
#X connect 14 0 15 1;
#X connect 15 0 0 0;
#X connect 16 0 1 1;
#X connect 16 0 2 1;
#X connect 17 0 25 0;
#X connect 18 0 17 0;
#X connect 19 0 5 0;
#X connect 20 0 7 1;
#X connect 21 0 25 0;
#X connect 23 0 25 1;
#X connect 24 0 7 0;
#X restore 774 672 pd ringe;
#X obj 774 644 tgl 15 0 empty empty empty 17 7 0 10 -4034 -1 -1 0 1
;
#X obj 827 646 nbx 2 14 -1e+37 1e+37 0 1 empty empty empty 0 -8 0 10
-4034 -1 -1 1 256;
#X obj 865 388 hradio 15 1 1 2 empty verteiler empty 0 -8 0 10 -4034
-1 -1 1;
#N canvas 234 720 719 296 gemwin 0;
#X obj 67 178 outlet;
#X obj 67 10 inlet;
#X obj 67 41 route create;
#X msg 67 70 set destroy;
#X msg 182 68 set create;
#X msg 131 133 create \, 1;
#X msg 183 101 destroy;
#N canvas 243 726 317 295 Gem.init 0;
#X obj 59 46 loadbang;
#X obj 171 260 outlet;
#X msg 104 103 color 0 0 0;
#X msg 2 210 FSAA \$1;
#X msg 2 184 0;
#X msg 31 184 2;
#X msg 60 184 4;
#X obj 59 65 t b b b b b;
#X msg 171 190 frame 30;
#X msg 213 220 reset;
#X msg 89 184 8;
#X msg 91 128 dimen 640 480;
#X connect 0 0 7 0;
#X connect 2 0 1 0;
#X connect 3 0 1 0;
#X connect 4 0 3 0;
#X connect 5 0 3 0;
#X connect 6 0 3 0;
#X connect 7 0 10 0;
#X connect 7 1 11 0;
#X connect 7 2 2 0;
#X connect 7 3 8 0;
#X connect 7 4 9 0;
#X connect 8 0 1 0;
#X connect 9 0 1 0;
#X connect 10 0 3 0;
#X connect 11 0 1 0;
#X restore 175 23 pd Gem.init;
#X obj 356 108 r fullscreen;
#X obj 130 194 gemhead;
#X obj 130 221 s gemhead;
#X obj 375 164 sel 1 0;
#X obj 356 137 t b f b;
#X msg 426 164 destroy;
#X obj 131 157 gemwin 25;
#X msg 376 194 border 0 \, offset 1920 0 \, dimen 1280 960 \, fullscreen
0;
#X msg 394 221 border 1 \, offset 0 0 \, dimen 640 480 \, fullscreen
0;
#X msg 277 48 dimen 800 600;
#X msg 276 72 dimen 1280 720;
#X msg 277 24 dimen 640 480;
#X msg 413 4 dimen 1024 140;
#X connect 1 0 2 0;
#X connect 2 0 3 0;
#X connect 2 0 5 0;
#X connect 2 1 4 0;
#X connect 2 1 6 0;
#X connect 3 0 0 0;
#X connect 4 0 0 0;
#X connect 5 0 14 0;
#X connect 6 0 14 0;
#X connect 7 0 14 0;
#X connect 8 0 12 0;
#X connect 9 0 10 0;
#X connect 11 0 15 0;
#X connect 11 1 16 0;
#X connect 12 1 11 0;
#X connect 12 2 13 0;
#X connect 12 2 4 0;
#X connect 13 0 14 0;
#X connect 15 0 14 0;
#X connect 16 0 14 0;
#X connect 17 0 14 0;
#X connect 18 0 14 0;
#X connect 19 0 14 0;
#X connect 20 0 14 0;
#X restore 717 34 pd gemwin;
#X obj 1129 663 cellular/epic;
#X obj 1129 639 tgl 15 0 empty empty empty 17 7 0 10 -4034 -1 -1 0
1;
#X obj 1217 639 tgl 15 0 empty empty empty 17 7 0 10 -4034 -1 -1 0
1;
#X obj 1129 690 tgl 15 0 empty cell_symbol empty 17 7 0 10 -4034 -1
-1 0 1;
#X obj 1183 690 tgl 15 0 empty empty empty 17 7 0 10 -4034 -1 -1 0
1;
#X obj 1238 689 tgl 15 0 empty empty empty 17 7 0 10 -4034 -1 -1 0
1;
#X obj 601 555 tgl 15 1 xlonoff __xblock3D empty 0 -6 0 8 -260353 -1
-1 0 1;
#X obj 569 582 shunt;
#X obj 569 528 strobe;
#X obj 616 513 hradio 15 1 1 4 empty empty mode 64 8 0 9 -4034 -1 -4034
0;
#X obj 616 529 nbx 3 14 -1e+37 1e+37 0 1 empty empty falloff_time 36
8 0 8 -4034 -1 -4034 71 256;
#X obj 773 756 specbars;
#X obj 773 729 tgl 15 1 empty empty empty 0 -6 0 8 -4034 -1 -1 0 1
;
#X msg 836 756 white;
#X msg 717 6 create;
#X symbolatom 369 282 55 0 0 0 - - -;
#X msg 584 360 alpha blend;
#X msg 584 375 add;
#X msg 584 390 multiply;
#X msg 584 406 hard light;
#X msg 584 420 overlay;
#X msg 584 436 diff;
#X msg 584 345 layer 1 only;
#X obj 440 44 dirpanel;
#X msg 369 89 putvideodir \$1;
#X obj 440 15 bng 15 250 50 0 empty empty empty 17 7 0 10 -99865 -1
-1;
#X obj 882 44 dirpanel;
#X obj 882 15 bng 15 250 50 0 empty empty empty 17 7 0 10 -99865 -1
-1;
#X msg 812 90 putvideodir \$1;
#N canvas 672 700 471 401 keyboard 0;
#X obj 78 51 key;
#X obj 78 91 == 32;
#X obj 77 155 s key_trigger_space;
#X floatatom 33 156 5 0 0 0 - - -;
#X obj 198 58 keyname;
#X obj 198 82 change;
#X obj 77 128 spigot;
#X msg 237 147 0;
#X msg 257 147 1;
#X msg 277 147 2;
#X msg 297 147 3;
#X msg 317 147 4;
#X msg 337 147 5;
#X msg 357 147 6;
#X msg 378 147 7;
#X msg 237 183 \; blend_mode \$1;
#X obj 237 120 sel F1 F2 F3 F4 F5 F6 F7 F8;
#X msg 238 294 0;
#X msg 258 294 1;
#X msg 278 294 2;
#X msg 298 294 3;
#X msg 318 294 4;
#X msg 338 294 5;
#X msg 358 294 6;
#X msg 238 330 \; shader-effect \$1;
#X obj 241 243 sel q w e r t z u;
#X connect 0 0 1 0;
#X connect 0 0 3 0;
#X connect 1 0 6 1;
#X connect 4 0 5 0;
#X connect 4 1 16 0;
#X connect 5 0 6 0;
#X connect 6 0 2 0;
#X connect 7 0 15 0;
#X connect 8 0 15 0;
#X connect 9 0 15 0;
#X connect 10 0 15 0;
#X connect 11 0 15 0;
#X connect 12 0 15 0;
#X connect 13 0 15 0;
#X connect 14 0 15 0;
#X connect 16 0 7 0;
#X connect 16 1 8 0;
#X connect 16 2 9 0;
#X connect 16 3 10 0;
#X connect 16 4 11 0;
#X connect 16 5 12 0;
#X connect 16 6 13 0;
#X connect 16 7 14 0;
#X connect 16 8 25 0;
#X connect 17 0 24 0;
#X connect 18 0 24 0;
#X connect 19 0 24 0;
#X connect 20 0 24 0;
#X connect 21 0 24 0;
#X connect 22 0 24 0;
#X connect 23 0 24 0;
#X connect 25 0 17 0;
#X connect 25 1 18 0;
#X connect 25 2 19 0;
#X connect 25 3 20 0;
#X connect 25 4 21 0;
#X connect 25 5 22 0;
#X connect 25 6 23 0;
#X restore 190 139 pd keyboard;
#X obj 653 773 hradio 15 1 1 5 empty empty empty 0 -8 0 10 -260097
-1 -1 0;
#X obj 332 338 movieplayer 1;
#N canvas 416 324 450 526 TODO 0;
#X text 35 77 - Wii;
#X text 35 129 - blur circle;
#X text 35 145 - movieplayer: start stop loop;
#X text 34 164 - cam control mit joystick;
#X text 35 201 - set size and origin of cellulars;
#X text 35 112 - modular shader drop ins for pixes;
#X text 35 92 - debug effects joy-control;
#X text 35 220 - flocking;
#X text 35 182 - repair videogrid for 2 instances;
#X text 34 61 - documentation;
#X restore 165 42 pd TODO;
#N canvas 611 167 913 797 effects 0;
#X obj 101 101 bng 15 250 50 0 bumm empty empty 0 -6 0 8 -258113 -1
-1;
#X obj 117 101 bng 15 250 50 0 zack empty empty 0 -6 0 8 -258113 -1
-1;
#X floatatom 101 145 5 0 0 0 - special_channel -;
#X floatatom 421 162 5 0 0 0 - - -;
#X obj 218 155 line 1;
#X obj 22 191 pack;
#X obj 22 210 s ctlist;
#X obj 22 118 r effect1;
#X obj 22 140 spigot;
#X obj 217 194 spigot;
#X obj 217 175 r effect2;
#X obj 333 198 spigot;
#X obj 333 152 r effect3;
#X obj 421 180 r effect4;
#X obj 421 200 spigot;
#X obj 101 128 tgl 15 0 empty empty empty 0 -6 0 8 -258113 -1 -1 0
1;
#X obj 118 128 tgl 15 0 empty empty empty 0 -6 0 8 -258113 -1 -1 0
1;
#X obj 136 128 tgl 15 0 empty empty empty 0 -6 0 8 -258113 -1 -1 0
1;
#X obj 154 128 tgl 15 0 empty empty empty 0 -6 0 8 -258113 -1 -1 0
1;
#X obj 81 16 inlet;
#X obj 118 16 inlet;
#X floatatom 232 275 5 0 0 0 - - -;
#X floatatom 287 276 5 0 0 0 - - -;
#X floatatom 150 146 5 0 0 0 - - -;
#X obj 216 117 pack \$1 250;
#X obj 333 176 r level;
#X obj 592 103 spigot;
#X obj 591 128 r takt;
#X obj 591 146 / 128;
#X obj 590 185 metro;
#X obj 521 143 loadbang;
#X obj 572 185 tgl 15 0 empty empty empty 0 -6 0 8 -262144 -1 -1 1
1;
#X obj 173 128 tgl 15 0 empty empty empty 0 -6 0 8 -258113 -1 -1 0
1;
#X obj 641 103 r effect5;
#X obj 101 171 select 1;
#X msg 101 188 0;
#X obj 118 214 select 1;
#X msg 118 231 0;
#X obj 135 256 select 1;
#X msg 135 273 0;
#X obj 154 295 select 1;
#X msg 154 312 0;
#X obj 173 332 select 1;
#X msg 173 349 0;
#X obj 591 165 * 4;
#X obj 216 79 t b b;
#X obj 619 165 r multiblubb;
#X obj 241 333 r pos_rand;
#X obj 241 371 r pos_ramp;
#X obj 241 408 r pos_env;
#X obj 241 447 r pos_count;
#X obj 241 484 r pos_sync;
#X obj 241 353 spigot;
#X obj 241 389 spigot;
#X obj 241 427 spigot;
#X obj 241 465 spigot;
#X obj 241 503 spigot;
#X obj 320 351 spigot;
#X obj 320 390 spigot;
#X obj 355 427 spigot;
#X obj 320 465 spigot;
#X obj 320 503 spigot;
#X obj 415 351 spigot;
#X obj 415 389 spigot;
#X obj 415 427 spigot;
#X obj 415 465 spigot;
#X obj 415 503 spigot;
#X obj 505 351 spigot;
#X obj 505 389 spigot;
#X obj 505 427 spigot;
#X obj 505 465 spigot;
#X obj 505 503 spigot;
#X obj 320 333 r scale_rand;
#X obj 320 370 r scale_ramp;
#X obj 321 410 r scale_env;
#X obj 320 447 r scale_count;
#X obj 320 484 r scale_sync;
#X obj 415 333 r rotz_rand;
#X obj 415 371 r rotz_ramp;
#X obj 415 408 r rotz_env;
#X obj 415 447 r rotz_count;
#X obj 415 484 r rotz_sync;
#X obj 505 333 r rot_rand;
#X obj 505 371 r rot_ramp;
#X obj 505 408 r rot_env;
#X obj 505 447 r rot_count;
#X obj 505 484 r rot_sync;
#X obj 22 59 spigot;
#X obj 69 59 spigot;
#X obj 117 59 == 0;
#X obj 22 40 select 1;
#X obj 22 19 r 8_bt;
#X msg 216 98 0;
#X obj 369 29 loadbang;
#X msg 369 50 64;
#X obj 369 72 s rampstart;
#X floatatom 152 102 5 0 100 0 - - -;
#X obj 149 59 r joy;
#X obj 624 334 r layer;
#X msg 632 426 2;
#X msg 662 425 5;
#X msg 694 425 9;
#X obj 624 354 - 1;
#X obj 624 372 * 16;
#X obj 665 392 t b f;
#X obj 632 444 +;
#X obj 663 444 +;
#X obj 694 444 +;
#X obj 723 443 +;
#X msg 723 424 13;
#X obj 341 611 spigot;
#X obj 741 548 spigot;
#X obj 774 522 r scale_env_2;
#X obj 741 500 r level;
#X obj 434 624 spigot;
#X obj 434 606 r rotz_sync_2;
#X obj 530 623 spigot;
#X obj 530 605 r rot_sync_2;
#X obj 241 626 spigot;
#X obj 241 606 r pos_sync_2;
#X obj 590 207 counter 1 128;
#X obj 421 139 counter 1 128;
#X floatatom 318 679 5 0 0 0 - - -;
#X obj 318 655 / 50;
#X obj 416 706 s 3Dz;
#X obj 416 676 - 360;
#X obj 416 651 * 6;
#X obj 741 603 s scalefactor_2;
#X obj 633 553 spigot;
#X obj 633 505 r level;
#X obj 318 756 s scalefactor;
#X obj 633 603 s scalefactor_1;
#X obj 396 619 tgl 15 0 empty empty empty 17 7 0 10 -262144 -1 -1 0
1;
#X obj 666 527 r scale_env_1;
#X obj 22 94 random 256;
#X obj 633 576 / 80;
#X obj 741 577 / 80;
#X obj 763 439 r scale_factor;
#X obj 358 679 &&;
#X obj 358 649 t b f;
#X obj 321 428 t f f;
#X obj 358 702 sel 0;
#X msg 358 725 1;
#X obj 451 760 tgl 15 0 empty empty empty 17 7 0 10 -262144 -1 -1 0
1;
#X obj 396 585 r scale_ramp;
#X obj 279 25 r duration;
#X obj 217 135 int 4;
#X obj 307 47 r volume;
#X obj 279 46 * 8;
#X obj 307 73 / 2;
#X connect 0 0 45 0;
#X connect 2 0 5 1;
#X connect 3 0 14 0;
#X connect 3 0 55 0;
#X connect 3 0 60 0;
#X connect 3 0 65 0;
#X connect 3 0 70 0;
#X connect 4 0 9 0;
#X connect 4 0 53 0;
#X connect 4 0 58 0;
#X connect 4 0 63 0;
#X connect 4 0 68 0;
#X connect 4 0 110 0;
#X connect 5 0 6 0;
#X connect 7 0 15 0;
#X connect 8 0 5 0;
#X connect 9 0 5 0;
#X connect 10 0 16 0;
#X connect 11 0 5 0;
#X connect 12 0 17 0;
#X connect 13 0 18 0;
#X connect 14 0 5 0;
#X connect 15 0 8 1;
#X connect 15 0 34 0;
#X connect 16 0 9 1;
#X connect 16 0 36 0;
#X connect 17 0 11 1;
#X connect 17 0 38 0;
#X connect 18 0 14 1;
#X connect 18 0 40 0;
#X connect 19 0 0 0;
#X connect 19 0 88 0;
#X connect 20 0 1 0;
#X connect 20 0 88 0;
#X connect 24 0 4 0;
#X connect 25 0 11 0;
#X connect 25 0 54 0;
#X connect 25 0 59 0;
#X connect 25 0 64 0;
#X connect 25 0 69 0;
#X connect 26 0 5 0;
#X connect 27 0 28 0;
#X connect 27 0 23 0;
#X connect 28 0 44 0;
#X connect 29 0 120 0;
#X connect 30 0 31 0;
#X connect 31 0 29 0;
#X connect 32 0 26 1;
#X connect 32 0 42 0;
#X connect 33 0 32 0;
#X connect 34 0 35 0;
#X connect 35 0 16 0;
#X connect 35 0 17 0;
#X connect 35 0 18 0;
#X connect 35 0 32 0;
#X connect 36 0 37 0;
#X connect 37 0 15 0;
#X connect 37 0 17 0;
#X connect 37 0 18 0;
#X connect 37 0 32 0;
#X connect 38 0 39 0;
#X connect 39 0 18 0;
#X connect 39 0 32 0;
#X connect 39 0 16 0;
#X connect 39 0 15 0;
#X connect 40 0 41 0;
#X connect 41 0 32 0;
#X connect 41 0 17 0;
#X connect 41 0 16 0;
#X connect 41 0 15 0;
#X connect 42 0 43 0;
#X connect 43 0 15 0;
#X connect 43 0 16 0;
#X connect 43 0 17 0;
#X connect 43 0 18 0;
#X connect 44 0 29 1;
#X connect 45 0 92 0;
#X connect 45 1 146 0;
#X connect 46 0 44 1;
#X connect 47 0 52 1;
#X connect 48 0 53 1;
#X connect 49 0 54 1;
#X connect 50 0 55 1;
#X connect 51 0 56 1;
#X connect 57 0 123 0;
#X connect 58 0 123 0;
#X connect 59 0 123 0;
#X connect 60 0 123 0;
#X connect 61 0 123 0;
#X connect 62 0 126 0;
#X connect 63 0 126 0;
#X connect 64 0 126 0;
#X connect 65 0 126 0;
#X connect 66 0 126 0;
#X connect 72 0 57 1;
#X connect 73 0 58 1;
#X connect 74 0 140 0;
#X connect 75 0 60 1;
#X connect 76 0 61 1;
#X connect 77 0 62 1;
#X connect 78 0 63 1;
#X connect 79 0 64 1;
#X connect 80 0 65 1;
#X connect 81 0 66 1;
#X connect 82 0 67 1;
#X connect 83 0 68 1;
#X connect 84 0 69 1;
#X connect 85 0 70 1;
#X connect 86 0 71 1;
#X connect 87 0 45 0;
#X connect 87 0 121 0;
#X connect 87 0 134 0;
#X connect 88 0 45 0;
#X connect 88 0 121 0;
#X connect 88 0 134 0;
#X connect 89 0 88 1;
#X connect 90 0 87 0;
#X connect 91 0 90 0;
#X connect 92 0 24 0;
#X connect 93 0 94 0;
#X connect 94 0 95 0;
#X connect 97 0 89 0;
#X connect 97 0 87 1;
#X connect 98 0 102 0;
#X connect 99 0 105 0;
#X connect 100 0 106 0;
#X connect 101 0 107 0;
#X connect 102 0 103 0;
#X connect 103 0 104 0;
#X connect 104 0 99 0;
#X connect 104 0 100 0;
#X connect 104 0 101 0;
#X connect 104 0 109 0;
#X connect 104 1 105 1;
#X connect 104 1 106 1;
#X connect 104 1 107 1;
#X connect 104 1 108 1;
#X connect 109 0 108 0;
#X connect 110 0 123 0;
#X connect 111 0 136 0;
#X connect 112 0 111 1;
#X connect 113 0 111 0;
#X connect 114 0 126 0;
#X connect 115 0 114 1;
#X connect 117 0 116 1;
#X connect 119 0 118 1;
#X connect 120 0 26 0;
#X connect 120 0 56 0;
#X connect 120 0 61 0;
#X connect 120 0 66 0;
#X connect 120 0 71 0;
#X connect 120 0 114 0;
#X connect 120 0 116 0;
#X connect 120 0 118 0;
#X connect 121 0 3 0;
#X connect 122 0 130 0;
#X connect 123 0 122 0;
#X connect 125 0 124 0;
#X connect 126 0 125 0;
#X connect 128 0 135 0;
#X connect 129 0 128 0;
#X connect 132 0 138 0;
#X connect 133 0 128 1;
#X connect 134 0 8 0;
#X connect 134 0 57 0;
#X connect 134 0 62 0;
#X connect 134 0 67 0;
#X connect 135 0 131 0;
#X connect 136 0 127 0;
#X connect 137 0 135 1;
#X connect 137 0 136 1;
#X connect 138 0 141 0;
#X connect 139 0 138 0;
#X connect 139 1 138 1;
#X connect 139 1 143 0;
#X connect 140 0 139 0;
#X connect 140 1 59 1;
#X connect 141 0 142 0;
#X connect 142 0 130 0;
#X connect 144 0 110 1;
#X connect 144 0 132 0;
#X connect 145 0 148 0;
#X connect 146 0 4 0;
#X connect 147 0 149 0;
#X connect 148 0 24 1;
#X connect 149 0 146 1;
#X connect 149 0 21 0;
#X coords 0 -1 1 1 90 60 1 100 100;
#X restore 61 163 pd effects;
#X obj 62 228 tgl 15 0 pos_rand empty empty 0 -6 0 8 -162280 -1 -1
0 1;
#X obj 80 228 tgl 15 0 pos_ramp empty empty 0 -6 0 8 -162280 -1 -1
0 1;
#X obj 98 228 tgl 15 0 pos_env empty empty 0 -6 0 8 -162280 -1 -1 0
1;
#X obj 116 228 tgl 15 0 pos_count empty empty 0 -6 0 8 -162280 -1 -1
0 1;
#X obj 134 228 tgl 15 0 pos_sync empty empty 0 -6 0 8 -162280 -1 -1
0 1;
#X obj 62 246 tgl 15 0 scale_rand empty empty 0 -6 0 8 -162280 -1 -1
0 1;
#X obj 80 246 tgl 15 0 scale_ramp empty empty 0 -6 0 8 -258113 -1 -1
0 1;
#X obj 98 246 tgl 15 0 scale_env autoscale empty 0 -6 0 8 -258113 -1
-1 0 1;
#X obj 116 246 tgl 15 0 scale_count empty empty 0 -6 0 8 -162280 -1
-1 0 1;
#X obj 134 246 tgl 15 0 scale_sync empty empty 0 -6 0 8 -258113 -1
-1 0 1;
#X text 155 226 pos;
#X text 154 265 rotz;
#X text 154 246 scale;
#X text 155 283 rot;
#X obj 62 264 tgl 15 0 rotz_rand empty empty 0 -6 0 8 -162280 -1 -1
0 1;
#X obj 80 264 tgl 15 0 rotz_ramp empty empty 0 -6 0 8 -258113 -1 -1
0 1;
#X obj 98 264 tgl 15 0 rotz_env empty empty 0 -6 0 8 -258113 -1 -1
0 1;
#X obj 116 264 tgl 15 0 rotz_count empty empty 0 -6 0 8 -162280 -1
-1 0 1;
#X obj 134 264 tgl 15 0 rotz_sync empty empty 0 -6 0 8 -258113 -1 -1
0 1;
#X obj 62 282 tgl 15 0 rot_rand empty empty 0 -6 0 8 -162280 -1 -1
0 1;
#X obj 80 282 tgl 15 0 rot_ramp empty empty 0 -6 0 8 -162280 -1 -1
0 1;
#X obj 98 282 tgl 15 0 rot_env empty empty 0 -6 0 8 -162280 -1 -1 0
1;
#X obj 116 282 tgl 15 0 rot_count empty empty 0 -6 0 8 -162280 -1 -1
0 1;
#X obj 134 282 tgl 15 0 rot_sync empty empty 0 -6 0 8 -162280 -1 -1
0 1;
#X text 64 300 random;
#X text 80 315 ramp;
#X text 97 330 level;
#X text 116 300 count;
#X text 136 315 loop;
#X text 60 92 bass;
#X text 59 70 low;
#X text 59 52 middle;
#X text 58 32 high;
#N canvas 30 140 553 388 verteiler 0;
#X obj 28 20 inlet;
#X obj 28 175 + 1;
#X obj 28 295 outlet;
#X obj 168 123 == 1;
#X obj 135 182 spigot;
#X obj 135 158 r volume;
#X obj 97 191 sel 0;
#X obj 28 48 t f f f;
#X obj 135 287 s squeezeY;
#X msg 97 222 1;
#X obj 135 223 / 150;
#X obj 251 123 == 2;
#X obj 218 160 spigot;
#X obj 84 21 inlet;
#X obj 139 21 inlet;
#X obj 218 300 outlet;
#X obj 289 163 spigot;
#X obj 322 126 == 3;
#X obj 28 248 switch 4;
#X obj 381 33 r fx_blit_switch;
#X obj 381 63 tgl 15 0 empty empty empty 17 7 0 10 -262144 -1 -1 0
1;
#X obj 381 91 sel 0;
#X obj 381 121 int;
#X connect 0 0 7 0;
#X connect 0 0 22 1;
#X connect 1 0 18 0;
#X connect 3 0 4 1;
#X connect 4 0 10 0;
#X connect 5 0 4 0;
#X connect 6 0 9 0;
#X connect 7 0 1 0;
#X connect 7 1 6 0;
#X connect 7 2 3 0;
#X connect 7 2 11 0;
#X connect 7 2 17 0;
#X connect 9 0 8 0;
#X connect 10 0 8 0;
#X connect 11 0 12 1;
#X connect 12 0 15 0;
#X connect 13 0 18 1;
#X connect 13 0 12 0;
#X connect 14 0 18 2;
#X connect 14 0 16 0;
#X connect 16 0 15 0;
#X connect 17 0 16 1;
#X connect 18 0 2 0;
#X connect 19 0 20 0;
#X connect 20 0 21 0;
#X connect 21 0 22 0;
#X connect 21 1 7 0;
#X connect 22 0 7 0;
#X restore 772 385 pd verteiler;
#X floatatom 1206 38 5 0 0 0 - - -;
#N canvas 4 106 187 219 fps 0;
#X obj 22 62 realtime;
#X obj 22 41 t b b;
#X obj 22 19 gemhead;
#X obj 22 170 outlet;
#X msg 22 84 1000 \$1;
#X obj 22 105 /;
#X obj 22 126 + 0.5;
#X obj 22 147 i;
#X connect 0 0 4 0;
#X connect 1 0 0 0;
#X connect 1 1 0 1;
#X connect 2 0 1 0;
#X connect 4 0 5 0;
#X connect 5 0 6 0;
#X connect 6 0 7 0;
#X connect 7 0 3 0;
#X restore 1206 18 pd fps;
#X obj 1189 20 vsl 10 100 0 50 0 0 empty empty empty 0 -9 0 10 -162280
-1 -1 0 1;
#X text 1199 90 - 10;
#X text 1198 60 - 25;
#X obj 432 493 hradio 15 1 1 4 empty output_model_1 empty 0 -8 0 8
-260097 -1 -260097 1;
#X obj 871 494 hradio 15 1 1 4 empty output_model_2 empty 0 -8 0 8
-4034 -1 -4034 1;
#X obj 331 519 hradio 15 1 1 5 empty empty empty 0 -8 0 10 -260097
-1 -1 3;
#X obj 771 515 hradio 15 1 1 5 empty empty empty 0 -8 0 10 -4034 -1
-1 2;
#X obj 1129 436 tgl 15 0 empty empty empty 17 7 0 10 -4034 -1 -1 0
1;
#X obj 1180 436 tgl 15 0 empty empty empty 17 7 0 10 -4034 -1 -1 0
1;
#X obj 1231 436 tgl 15 0 empty empty empty 17 7 0 10 -4034 -1 -1 0
1;
#N canvas 176 257 587 183 autorotate 0;
#X obj 90 85 hsl 128 12 0 360 0 0 empty empty empty -2 -8 0 10 -262144
-1 -1 0 1;
#X obj 230 85 hsl 128 12 0 360 0 0 empty empty empty -2 -8 0 10 -262144
-1 -1 0 1;
#X obj 370 85 hsl 128 12 0 360 0 0 empty empty empty -2 -8 0 10 -262144
-1 -1 0 1;
#X obj 87 28 inlet;
#X obj 227 28 inlet;
#X obj 367 28 inlet;
#X obj 87 57 autorotate;
#X obj 227 57 autorotate;
#X obj 367 57 autorotate;
#X obj 87 109 s 3Dx_2;
#X obj 227 109 s 3Dy_2;
#X obj 367 109 s 3Dz_2;
#X connect 0 0 9 0;
#X connect 1 0 10 0;
#X connect 2 0 11 0;
#X connect 3 0 6 0;
#X connect 4 0 7 0;
#X connect 5 0 8 0;
#X connect 6 0 0 0;
#X connect 7 0 1 0;
#X connect 8 0 2 0;
#X restore 1129 459 pd autorotate 2;
#N canvas 175 263 587 183 autorotate 0;
#X obj 90 85 hsl 128 12 0 360 0 0 empty empty empty -2 -8 0 10 -262144
-1 -1 0 1;
#X obj 230 85 hsl 128 12 0 360 0 0 empty empty empty -2 -8 0 10 -262144
-1 -1 0 1;
#X obj 370 85 hsl 128 12 0 360 0 0 empty empty empty -2 -8 0 10 -262144
-1 -1 0 1;
#X obj 87 28 inlet;
#X obj 227 28 inlet;
#X obj 367 28 inlet;
#X obj 87 57 autorotate;
#X obj 227 57 autorotate;
#X obj 367 57 autorotate;
#X obj 87 114 s 3Dx_1;
#X obj 227 114 s 3Dy_1;
#X obj 367 113 s 3Dz_1;
#X connect 0 0 9 0;
#X connect 1 0 10 0;
#X connect 2 0 11 0;
#X connect 3 0 6 0;
#X connect 4 0 7 0;
#X connect 5 0 8 0;
#X connect 6 0 0 0;
#X connect 7 0 1 0;
#X connect 8 0 2 0;
#X restore 29 459 pd autorotate 1;
#N canvas 521 596 266 348 autoblend 0;
#X obj 149 31 inlet;
#X msg 66 233 2;
#X msg 98 233 4;
#X msg 161 233 3;
#X msg 129 233 5;
#X obj 66 30 r bonkbonk;
#X obj 98 168 del 40;
#X obj 129 187 del 80;
#X obj 161 209 del 80;
#X obj 66 289 s blend_mode;
#X obj 66 95 spigot;
#X obj 10 29 inlet;
#X obj 66 132 countfilter;
#X connect 0 0 12 1;
#X connect 1 0 9 0;
#X connect 2 0 9 0;
#X connect 3 0 9 0;
#X connect 4 0 9 0;
#X connect 5 0 10 0;
#X connect 6 0 2 0;
#X connect 6 0 7 0;
#X connect 7 0 4 0;
#X connect 7 0 8 0;
#X connect 8 0 3 0;
#X connect 10 0 12 0;
#X connect 11 0 10 1;
#X connect 12 0 1 0;
#X connect 12 0 6 0;
#X restore 29 674 pd autoblend;
#X obj 29 649 tgl 15 0 empty empty empty 0 -6 0 8 -260097 -1 -1 0 1
;
#X obj 110 652 nbx 4 12 -360 360 0 0 empty empty empty 0 -8 0 8 -260097
-1 -1 0 256;
#X obj 569 727 shunt 3;
#N canvas 817 281 450 300 sphere 0;
#X obj 21 16 inlet;
#X obj 21 118 rotateXYZ;
#X floatatom 111 87 5 0 0 0 - - -;
#X floatatom 38 189 5 0 0 0 - - -;
#X obj 21 85 pix_texture;
#X floatatom 157 86 5 0 0 0 - - -;
#X obj 21 52 pix_set 512 512;
#X msg 94 11 rectangle 0;
#X obj 21 230 sphere 2.5;
#X floatatom 78 207 5 0 0 0 - - -;
#X msg 78 188 32;
#X obj 78 170 loadbang;
#X obj 21 144 translateXYZ 0 0 -0.5;
#X connect 0 0 6 0;
#X connect 1 0 12 0;
#X connect 2 0 1 2;
#X connect 3 0 8 1;
#X connect 4 0 1 0;
#X connect 5 0 1 1;
#X connect 6 0 4 0;
#X connect 7 0 4 0;
#X connect 9 0 8 2;
#X connect 10 0 9 0;
#X connect 11 0 10 0;
#X connect 12 0 8 0;
#X restore 615 799 pd sphere;
#X obj 568 466 hradio 15 1 1 7 empty shader-effect empty 0 -8 0 10
-258113 -1 -1 4;
#X obj 330 570 tgl 15 0 empty empty empty 17 7 0 10 -260097 -1 -1 0
1;
#X obj 551 467 tgl 15 1 empty empty empty 17 7 0 10 -258113 -1 -1 0
1;
#X obj 29 489 tgl 15 0 empty empty empty 0 -6 0 8 -260097 -1 -1 0 1
;
#X obj 1129 488 tgl 15 0 empty empty empty 0 -6 0 8 -4034 -1 -1 0 1
;
#X obj 110 490 nbx 4 12 -360 360 0 0 empty empty empty 0 -8 0 8 -260097
-1 -1 0 256;
#X obj 1210 488 nbx 4 12 -360 360 0 0 empty empty empty 0 -8 0 8 -4034
-1 -1 0 256;
#N canvas 616 304 450 300 flash 0;
#X obj 151 16 inlet;
#X obj 112 115 spigot;
#X obj 158 115 spigot;
#X obj 204 115 spigot;
#X obj 88 73 r flash;
#X obj 112 148 s lonoff2;
#X obj 158 187 s lissajous;
#X obj 204 148 s cell_symbol;
#X obj 151 73 == 1;
#X obj 197 74 == 2;
#X obj 243 74 == 3;
#X connect 0 0 8 0;
#X connect 0 0 9 0;
#X connect 0 0 10 0;
#X connect 1 0 5 0;
#X connect 2 0 6 0;
#X connect 3 0 7 0;
#X connect 4 0 1 0;
#X connect 4 0 2 0;
#X connect 4 0 3 0;
#X connect 8 0 1 1;
#X connect 9 0 2 1;
#X connect 10 0 3 1;
#X restore 1016 519 pd flash;
#X obj 1016 496 hradio 15 1 0 4 empty empty empty 0 -8 0 8 -4034 -1
-4034 0;
#N canvas 269 242 265 300 autohop 0;
#X obj 25 40 r bonkbonk;
#X obj 25 140 random 256;
#X obj 25 66 spigot;
#X obj 58 12 inlet;
#X obj 25 252 s hop1;
#X obj 147 13 inlet;
#X obj 25 173 / 256;
#X obj 25 113 countfilter;
#X connect 0 0 2 0;
#X connect 1 0 6 0;
#X connect 2 0 7 0;
#X connect 3 0 2 1;
#X connect 5 0 7 1;
#X connect 6 0 4 0;
#X connect 7 0 1 0;
#X restore 29 511 pd autohop 1;
#N canvas 59 289 265 300 autohop 0;
#X obj 25 40 r bonkbonk;
#X obj 25 161 random 256;
#X obj 25 66 spigot;
#X obj 58 12 inlet;
#X obj 147 13 inlet;
#X obj 25 195 / 256;
#X obj 25 252 s hop2;
#X obj 25 113 countfilter;
#X connect 0 0 2 0;
#X connect 1 0 5 0;
#X connect 2 0 7 0;
#X connect 3 0 2 1;
#X connect 4 0 7 1;
#X connect 5 0 6 0;
#X connect 7 0 1 0;
#X restore 1129 511 pd autohop 1;
#X obj 29 539 tgl 15 0 empty empty empty 0 -6 0 8 -260097 -1 -1 0 1
;
#X obj 117 539 nbx 4 12 -360 360 0 0 empty empty empty 0 -8 0 8 -260097
-1 -1 0 256;
#N canvas 281 288 265 300 autojump 0;
#X obj 25 40 r bonkbonk;
#X obj 25 66 spigot;
#X obj 58 12 inlet;
#X obj 147 13 inlet;
#X obj 25 211 line;
#X obj 25 136 t b b;
#X obj 25 261 s yshift1;
#X msg 25 184 0 \$1;
#X obj 71 137 r duration;
#X obj 25 163 f 100;
#X obj 155 145 r volume;
#X obj 155 168 / 100;
#X obj 65 163 f 1;
#X obj 25 237 *;
#X obj 25 100 countfilter;
#X connect 0 0 1 0;
#X connect 1 0 14 0;
#X connect 2 0 1 1;
#X connect 3 0 14 1;
#X connect 4 0 13 0;
#X connect 4 0 13 1;
#X connect 5 0 9 0;
#X connect 5 1 12 0;
#X connect 7 0 4 0;
#X connect 8 0 9 1;
#X connect 9 0 7 0;
#X connect 10 0 11 0;
#X connect 11 0 12 1;
#X connect 12 0 4 0;
#X connect 13 0 6 0;
#X connect 14 0 5 0;
#X restore 29 561 pd autojump 1;
#X obj 1128 536 tgl 15 0 empty empty empty 0 -6 0 8 -4034 -1 -1 0 1
;
#X obj 1216 537 nbx 4 12 -360 360 0 0 empty empty empty 0 -8 0 8 -4034
-1 -1 0 256;
#N canvas 293 334 265 300 autojump 0;
#X obj 25 40 r bonkbonk;
#X obj 25 66 spigot;
#X obj 58 12 inlet;
#X obj 147 13 inlet;
#X obj 25 211 line;
#X obj 25 136 t b b;
#X msg 25 184 0 \$1;
#X obj 71 137 r duration;
#X obj 25 163 f 100;
#X obj 155 145 r volume;
#X obj 155 168 / 100;
#X obj 65 163 f 1;
#X obj 25 237 *;
#X obj 25 261 s yshift2;
#X obj 25 100 countfilter;
#X connect 0 0 1 0;
#X connect 1 0 14 0;
#X connect 2 0 1 1;
#X connect 3 0 14 1;
#X connect 4 0 12 0;
#X connect 4 0 12 1;
#X connect 5 0 8 0;
#X connect 5 1 11 0;
#X connect 6 0 4 0;
#X connect 7 0 8 1;
#X connect 8 0 6 0;
#X connect 9 0 10 0;
#X connect 10 0 11 1;
#X connect 11 0 4 0;
#X connect 12 0 13 0;
#X connect 14 0 5 0;
#X restore 1128 558 pd autojump 2;
#X obj 334 396 hsl 128 12 0 2 0 1 empty empty empty -2 -8 0 9 -260097
-1 -260097 7100 0;
#X obj 774 427 hsl 128 12 0 2 0 1 empty empty empty -2 -8 0 9 -4034
-1 -260097 6500 0;
#X obj 334 381 hsl 128 12 0 2 0 1 empty empty empty -2 -8 0 9 -260097
-1 -260097 6700 0;
#X obj 774 412 hsl 128 12 0 2 0 1 empty empty empty -2 -8 0 9 -4034
-1 -260097 7500 0;
#X obj 332 494 qprojection 1;
#X msg 405 572 helvetica;
#X text 119 510 jump frame;
#X text 125 561 jump space;
#X obj 1129 746 tgl 15 0 empty empty empty 17 7 0 10 -4034 -1 -1 0
1;
#X obj 1129 720 cellular/sprites;
#X obj 359 571 nbx 4 12 -360 360 0 0 empty empty empty 0 -8 0 8 -260097
-1 -1 0 256;
#X obj 330 593 spam ********;
#X obj 388 547 tgl 15 0 empty empty empty 17 7 0 10 -260097 -1 -1 0
1;
#X obj 1069 371 s _sigtex;
#X obj 272 139 tgl 15 0 empty empty connected 17 7 0 8 -257985 -1 -257985
0 1;
#X obj 311 156 nbx 1 14 1 2 0 1 empty empty mode 20 10 0 8 -257985
-1 -257985 1 256;
#X msg 272 64 connect;
#X msg 272 87 disconnect;
#X obj 772 495 qprojection 2;
#X obj 772 338 movieplayer 2;
#X obj 326 678 wavesphere;
#X msg 405 678 red;
#X obj 326 654 tgl 15 1 empty empty empty 17 7 0 10 -260097 -1 -1 0
1;
#X obj 348 654 tgl 15 0 empty empty empty 17 7 0 10 -260097 -1 -1 0
1;
#X obj 328 759 tgl 15 1 empty empty empty 17 7 0 10 -260097 -1 -1 0
1;
#X obj 380 716 tgl 15 0 empty empty autorotate 17 7 0 10 -260097 -1
-260097 0 1;
#X obj 370 654 tgl 15 0 empty empty autorotate 17 7 0 10 -260097 -1
-260097 0 1;
#X obj 328 732 hradio 15 1 0 3 empty empty texture 0 -8 0 10 -260097
-1 -260097 0;
#X obj 380 732 tgl 15 0 empty empty XY/Z 17 7 0 10 -260097 -1 -260097
0 1;
#X obj 425 731 tgl 15 0 empty empty object 17 7 0 10 -260097 -1 -260097
0 1;
#X obj 330 706 hsl 200 10 1 20000 1 1 empty empty filter -30 4 0 7
-260097 -1 -260097 19900 1;
#X obj 464 719 hsl 66 10 0 30 0 1 empty empty empty -2 -8 0 10 -260097
-1 -1 3400 1;
#X obj 328 783 waveshards;
#X msg 410 783 red;
#X obj 1129 775 cellular/character;
#X obj 332 415 glsl_contrast 3;
#X obj 772 446 glsl_contrast 4;
#X text 33 792 0.13;
#X obj 25 118 analysis2;
#X obj 1016 343 sig2pix2;
#X connect 0 0 77 0;
#X connect 2 0 192 1;
#X connect 4 0 42 0;
#X connect 6 0 7 0;
#X connect 17 0 100 2;
#X connect 18 0 192 2;
#X connect 19 0 100 0;
#X connect 20 0 192 0;
#X connect 23 0 187 0;
#X connect 23 1 188 0;
#X connect 26 0 0 0;
#X connect 28 0 212 0;
#X connect 29 0 211 0;
#X connect 30 0 211 0;
#X connect 31 0 211 0;
#X connect 32 0 211 0;
#X connect 33 0 212 1;
#X connect 34 0 4 1;
#X connect 35 0 4 2;
#X connect 36 0 4 3;
#X connect 37 0 84 0;
#X connect 38 0 2 0;
#X connect 39 0 37 0;
#X connect 41 0 42 1;
#X connect 42 0 154 0;
#X connect 43 0 150 0;
#X connect 44 0 150 1;
#X connect 45 0 150 2;
#X connect 46 0 154 1;
#X connect 48 0 50 0;
#X connect 49 0 48 0;
#X connect 50 0 37 0;
#X connect 51 0 37 0;
#X connect 51 1 57 0;
#X connect 52 0 38 0;
#X connect 52 1 58 0;
#X connect 53 0 38 0;
#X connect 54 0 56 0;
#X connect 55 0 54 0;
#X connect 56 0 38 0;
#X connect 60 0 59 0;
#X connect 61 0 59 1;
#X connect 62 0 59 3;
#X connect 63 0 59 2;
#X connect 65 0 64 0;
#X connect 66 0 64 1;
#X connect 67 0 136 0;
#X connect 68 0 83 0;
#X connect 70 0 69 0;
#X connect 71 0 69 1;
#X connect 72 0 182 0;
#X connect 73 0 182 1;
#X connect 74 0 182 2;
#X connect 75 0 76 1;
#X connect 76 0 42 0;
#X connect 76 1 4 0;
#X connect 77 0 76 0;
#X connect 78 0 77 1;
#X connect 79 0 77 2;
#X connect 80 0 82 0;
#X connect 81 0 80 0;
#X connect 82 0 80 1;
#X connect 83 0 68 0;
#X connect 84 0 100 1;
#X connect 92 0 93 0;
#X connect 93 0 37 0;
#X connect 94 0 92 0;
#X connect 95 0 97 0;
#X connect 96 0 95 0;
#X connect 97 0 38 0;
#X connect 99 0 40 1;
#X connect 100 0 208 0;
#X connect 100 1 1 0;
#X connect 136 0 209 0;
#X connect 137 0 139 0;
#X connect 138 0 137 0;
#X connect 142 0 177 1;
#X connect 143 0 191 1;
#X connect 144 0 177 2;
#X connect 145 0 191 2;
#X connect 146 0 149 0;
#X connect 147 0 149 1;
#X connect 148 0 149 2;
#X connect 152 0 151 0;
#X connect 153 0 151 1;
#X connect 154 0 47 0;
#X connect 154 1 40 0;
#X connect 154 2 155 0;
#X connect 156 0 0 2;
#X connect 157 0 184 0;
#X connect 158 0 0 1;
#X connect 159 0 165 0;
#X connect 160 0 166 0;
#X connect 161 0 165 1;
#X connect 162 0 166 1;
#X connect 164 0 163 0;
#X connect 167 0 169 0;
#X connect 168 0 169 1;
#X connect 170 0 172 0;
#X connect 171 0 172 1;
#X connect 173 0 208 1;
#X connect 174 0 209 1;
#X connect 175 0 208 2;
#X connect 176 0 209 2;
#X connect 178 0 184 3;
#X connect 181 0 207 0;
#X connect 183 0 184 1;
#X connect 184 0 178 0;
#X connect 185 0 184 2;
#X connect 189 0 23 0;
#X connect 190 0 23 0;
#X connect 192 0 136 1;
#X connect 192 1 3 0;
#X connect 193 0 194 0;
#X connect 194 0 193 3;
#X connect 195 0 193 0;
#X connect 196 0 193 1;
#X connect 197 0 205 0;
#X connect 198 0 205 2;
#X connect 199 0 193 2;
#X connect 200 0 205 1;
#X connect 201 0 205 3;
#X connect 202 0 205 4;
#X connect 203 0 205 5;
#X connect 204 0 205 6;
#X connect 205 0 206 0;
#X connect 206 0 205 7;
#X connect 208 0 177 0;
#X connect 209 0 191 0;
#X connect 211 0 8 0;
#X connect 211 0 15 0;
#X connect 211 1 102 0;
#X connect 211 2 102 1;
#X connect 212 0 136 2;
