#N canvas 723 163 923 661 10;
#X obj 24 186 glsl_vertex;
#X obj 24 272 glsl_fragment;
#X msg 38 164 open ../shaders/displace.vert;
#X msg 38 249 open ../shaders/displace.frag;
#X obj 24 47 gemhead 51;
#X obj 24 432 glsl_program;
#X obj 24 633 sphere 2 84;
#X obj 110 354 pack 0 0;
#X obj 128 331 t b f;
#X obj 128 289 change;
#X msg 110 380 link \$1 \$2;
#X floatatom 128 312 2 0 0 0 ID - -;
#X floatatom 110 226 2 0 0 0 ID - -;
#X obj 115 404 print linking;
#X obj 110 203 change;
#X obj 24 547 rotateXYZ;
#X obj 24 577 translateXYZ;
#X obj 24 459 pix_texture;
#X obj 278 225 sig2pix2;
#X obj 476 603 outlet;
#X msg 278 162 1;
#X obj 24 18 inlet on/off;
#X obj 520 18 inlet red/white;
#X obj 24 485 alpha;
#X floatatom 157 483 5 0 0 0 - - -;
#X floatatom 213 483 5 0 0 0 - - -;
#X floatatom 269 483 5 0 0 0 - - -;
#X obj 24 510 scale 1;
#X obj 63 484 r volume;
#X obj 73 509 / 100;
#X obj 38 145 loadbang;
#X msg 218 371 alpha \$1;
#X obj 218 347 tgl 15 0 empty empty empty 17 7 0 10 -262144 -1 -1 0
1;
#X obj 157 453 autorotate;
#X obj 223 453 autorotate;
#X obj 289 453 autorotate;
#X obj 401 18 inlet autorotate;
#X obj 401 395 tgl 15 0 empty empty empty 17 7 0 10 -262144 -1 -1 0
1;
#X obj 218 19 inlet alpha;
#X msg 47 384 repeat 1;
#X obj 24 87 alpha;
#X obj 24 112 polygon_smooth;
#X obj 300 49 r~ filtered_mic;
#X connect 0 0 1 0;
#X connect 0 1 14 0;
#X connect 1 0 5 0;
#X connect 1 1 9 0;
#X connect 2 0 0 0;
#X connect 3 0 1 0;
#X connect 4 0 40 0;
#X connect 5 0 17 0;
#X connect 7 0 10 0;
#X connect 8 0 7 0;
#X connect 8 1 7 1;
#X connect 9 0 11 0;
#X connect 10 0 13 0;
#X connect 10 0 5 0;
#X connect 11 0 8 0;
#X connect 12 0 7 0;
#X connect 14 0 12 0;
#X connect 15 0 16 0;
#X connect 16 0 6 0;
#X connect 17 0 23 0;
#X connect 18 1 17 1;
#X connect 18 2 19 0;
#X connect 20 0 18 0;
#X connect 21 0 4 0;
#X connect 22 0 18 2;
#X connect 23 0 27 0;
#X connect 24 0 15 1;
#X connect 25 0 15 2;
#X connect 26 0 15 3;
#X connect 27 0 15 0;
#X connect 28 0 29 0;
#X connect 29 0 27 1;
#X connect 30 0 2 0;
#X connect 30 0 3 0;
#X connect 30 0 20 0;
#X connect 31 0 5 0;
#X connect 32 0 31 0;
#X connect 33 0 24 0;
#X connect 34 0 25 0;
#X connect 35 0 26 0;
#X connect 36 0 37 0;
#X connect 37 0 33 0;
#X connect 37 0 34 0;
#X connect 37 0 35 0;
#X connect 38 0 32 0;
#X connect 39 0 17 0;
#X connect 40 0 41 0;
#X connect 41 0 0 0;
#X connect 42 0 18 1;
