#N canvas 478 140 781 626 10;
#X floatatom 131 410 5 0 0 0 - - -;
#X obj 518 163 r duration;
#X obj 241 155 loadbang;
#X msg 241 182 500;
#X obj 74 41 inlet;
#X obj 74 146 spigot;
#X obj 74 87 r bonkbonk;
#X obj 74 116 countfilter;
#X floatatom 145 87 5 0 0 0 - - -;
#X obj 159 117 r level;
#X obj 142 52 bng 15 250 50 0 empty empty empty 17 7 0 10 -258113 -1
-1;
#X floatatom 242 94 5 0 0 0 - - -;
#X msg 259 396 0;
#X obj 259 368 sel 0;
#X obj 286 396 t b;
#X obj 165 45 r filter_symbols;
#X obj 74 475 nqpoly4 30 charfog;
#X msg 74 319 rewind;
#X obj 74 350 textfile;
#X obj 131 238 random 1000;
#X obj 131 267 + 500;
#X obj 74 184 t b b b b;
#X obj 143 291 loadbang;
#X obj 108 206 random 30;
#X obj 103 268 +;
#X obj 74 439 pack s f f;
#X obj 74 383 list2symbol;
#X msg 286 422 10;
#X obj 103 238 / 30;
#X obj 159 143 / 20;
#X msg 143 319 read text.txt;
#X connect 0 0 25 2;
#X connect 2 0 3 0;
#X connect 3 0 0 0;
#X connect 4 0 5 1;
#X connect 4 0 13 0;
#X connect 5 0 21 0;
#X connect 6 0 7 0;
#X connect 7 0 5 0;
#X connect 8 0 7 1;
#X connect 9 0 29 0;
#X connect 10 0 21 0;
#X connect 11 0 29 1;
#X connect 12 0 16 1;
#X connect 13 0 12 0;
#X connect 13 1 14 0;
#X connect 14 0 27 0;
#X connect 15 0 8 0;
#X connect 17 0 18 0;
#X connect 18 0 26 0;
#X connect 18 1 17 0;
#X connect 19 0 20 0;
#X connect 20 0 0 0;
#X connect 21 0 18 0;
#X connect 21 2 23 0;
#X connect 21 3 19 0;
#X connect 22 0 30 0;
#X connect 23 0 28 0;
#X connect 24 0 25 1;
#X connect 25 0 16 0;
#X connect 26 0 25 0;
#X connect 27 0 16 1;
#X connect 28 0 24 0;
#X connect 29 0 24 1;
#X connect 30 0 18 0;
