#N canvas 1133 174 536 347 10;
#X obj 75 -146 inlet;
#X obj 251 -129 r duration;
#X floatatom 251 -97 5 0 0 0 - - -;
#X obj 42 -100 r bonkbonk;
#X obj 129 -122 r level;
#X obj 156 3 * 720;
#X obj 42 -21 i;
#X obj 42 -63 spigot;
#X obj 129 -61 * 5;
#X obj 42 20 pack f f;
#X obj 129 -82 t f f;
#X obj 129 -38 spigot 1;
#X obj 355 -126 inlet;
#X obj 355 -105 t f f;
#X msg 355 -33 4;
#X floatatom 210 15 5 0 0 0 - - -;
#X obj 129 -102 / 200;
#X msg 273 44 0;
#X obj 273 16 sel 0;
#X obj 300 44 t b;
#X msg 300 70 10;
#X obj 42 116 nqpoly4 10 rotator c;
#X obj 345 115 pix_buffer c 1;
#X obj 345 47 r texture_dir;
#X obj 345 70 symbol;
#X msg 345 92 open \$1/sym/003.png 0;
#X msg 42 54 0 250 \$1 0 0 \$2;
#X connect 0 0 7 1;
#X connect 0 0 18 0;
#X connect 1 0 2 0;
#X connect 3 0 7 0;
#X connect 4 0 16 0;
#X connect 5 0 9 1;
#X connect 6 0 9 0;
#X connect 7 0 6 0;
#X connect 8 0 11 0;
#X connect 9 0 26 0;
#X connect 10 0 8 0;
#X connect 10 1 5 0;
#X connect 11 0 6 1;
#X connect 12 0 13 0;
#X connect 13 0 14 0;
#X connect 13 1 11 1;
#X connect 14 0 6 1;
#X connect 15 0 16 1;
#X connect 16 0 10 0;
#X connect 17 0 21 1;
#X connect 18 0 17 0;
#X connect 18 1 19 0;
#X connect 19 0 20 0;
#X connect 20 0 21 1;
#X connect 23 0 24 0;
#X connect 24 0 25 0;
#X connect 25 0 22 0;
#X connect 26 0 21 0;
