#N canvas 359 431 730 559 10;
#X obj 111 226 pix_texture;
#X obj 288 225 line;
#X obj 111 346 scale;
#X obj 191 226 line;
#X msg 315 120 0;
#X obj 111 -5 inlet;
#X obj 334 406 outlet;
#X obj 201 85 t b f;
#X msg 201 110 0;
#X obj 568 71 inlet;
#X obj 201 135 pack f f;
#X obj 288 204 pack f f;
#X obj 111 445 square;
#X obj 111 269 alpha 1;
#X obj 293 322 delay;
#X obj 288 98 t f b;
#X text 100 37 i;
#X text 132 37 t;
#X text 152 37 s;
#X text 169 38 rx;
#X text 189 37 ry;
#X text 209 38 rz;
#X obj 344 225 line;
#X msg 371 120 0;
#X obj 344 204 pack f f;
#X obj 344 98 t f b;
#X obj 400 225 line;
#X msg 427 120 0;
#X obj 400 204 pack f f;
#X obj 400 98 t f b;
#X obj 111 375 rotateXYZ;
#X obj 84 128 gemhead 50;
#X obj 385 171 int;
#X obj 329 171 int;
#X obj 273 172 int;
#X obj 385 145 t b f;
#X msg 293 405 0;
#X msg 84 103 1;
#X obj 84 80 t b f;
#X obj 111 199 pix_buffer_read \$3;
#X obj 111 416 translateXYZ 0 0 1;
#X obj 111 22 unpack f f f f f f f f;
#X obj 84 151 alpha;
#X obj 84 173 polygon_smooth;
#X connect 0 0 13 0;
#X connect 1 0 30 1;
#X connect 2 0 30 0;
#X connect 3 0 2 1;
#X connect 4 0 1 0;
#X connect 5 0 41 0;
#X connect 7 0 8 0;
#X connect 7 0 14 0;
#X connect 7 1 10 1;
#X connect 7 1 14 1;
#X connect 8 0 10 0;
#X connect 9 0 36 0;
#X connect 10 0 3 0;
#X connect 11 0 1 0;
#X connect 13 0 2 0;
#X connect 14 0 6 0;
#X connect 14 0 36 0;
#X connect 15 0 34 1;
#X connect 15 1 4 0;
#X connect 22 0 30 2;
#X connect 23 0 22 0;
#X connect 24 0 22 0;
#X connect 25 0 33 1;
#X connect 25 1 23 0;
#X connect 26 0 30 3;
#X connect 27 0 26 0;
#X connect 28 0 26 0;
#X connect 29 0 32 1;
#X connect 29 1 27 0;
#X connect 30 0 40 0;
#X connect 31 0 42 0;
#X connect 32 0 28 0;
#X connect 33 0 24 0;
#X connect 34 0 11 0;
#X connect 35 0 34 0;
#X connect 35 0 33 0;
#X connect 35 0 32 0;
#X connect 35 1 28 1;
#X connect 35 1 24 1;
#X connect 35 1 11 1;
#X connect 36 0 31 0;
#X connect 37 0 31 0;
#X connect 38 0 37 0;
#X connect 38 1 39 1;
#X connect 39 0 0 0;
#X connect 40 0 12 0;
#X connect 41 0 38 0;
#X connect 41 1 7 0;
#X connect 41 1 35 0;
#X connect 41 2 3 0;
#X connect 41 3 15 0;
#X connect 41 4 25 0;
#X connect 41 5 29 0;
#X connect 41 6 40 1;
#X connect 41 7 40 2;
#X connect 42 0 43 0;
#X connect 43 0 39 0;
