#N canvas 426 292 1140 577 10;
#X floatatom 124 418 5 0 0 0 - - -;
#X obj 109 184 t b b b b b b;
#X floatatom 145 270 5 0 0 0 - - -;
#X floatatom 204 270 5 0 0 0 - - -;
#X floatatom 272 272 5 0 0 0 - - -;
#X floatatom 339 271 5 0 0 0 - - -;
#X obj 204 182 r duration;
#X obj 204 223 random 720;
#X obj 204 246 - 360;
#X obj 272 222 random 720;
#X obj 272 245 - 360;
#X obj 339 222 random 720;
#X obj 339 245 - 360;
#X obj 276 155 loadbang;
#X msg 276 182 500;
#X obj 109 41 inlet;
#X floatatom 525 403 5 0 0 0 - - -;
#X obj 507 169 t b b b b b b;
#X floatatom 540 255 5 0 0 0 - - -;
#X floatatom 598 255 5 0 0 0 - - -;
#X floatatom 666 257 5 0 0 0 - - -;
#X floatatom 733 256 5 0 0 0 - - -;
#X obj 603 140 r duration;
#X obj 674 140 loadbang;
#X msg 674 167 500;
#X obj 598 204 random 20;
#X obj 666 203 random 20;
#X obj 733 203 random 20;
#X obj 598 227 - 10;
#X obj 666 226 - 10;
#X obj 733 226 - 10;
#X obj 603 164 * 3;
#X obj 540 205 random 5;
#X obj 540 227 + 1;
#X floatatom 982 314 5 0 0 0 - - -;
#X obj 982 286 + 1;
#X obj 852 203 t b b b;
#X obj 922 140 r duration;
#X obj 993 140 loadbang;
#X msg 993 167 500;
#X obj 507 46 inlet;
#X obj 853 41 inlet;
#X obj 507 300 random 15;
#X obj 109 146 spigot;
#X obj 109 87 r bonkbonk;
#X obj 507 139 spigot;
#X obj 109 116 countfilter;
#X floatatom 180 87 5 0 0 0 - - -;
#X obj 507 87 r bonkbonk;
#X obj 507 116 countfilter;
#X floatatom 577 87 5 0 0 0 - - -;
#X obj 852 87 r bonkbonk;
#X obj 852 116 countfilter;
#X floatatom 922 87 5 0 0 0 - - -;
#X obj 852 145 spigot;
#X obj 145 238 i;
#X obj 194 117 r level;
#X obj 922 164 * 2;
#X obj 973 42 r level;
#X obj 973 72 > 1;
#X obj 853 64 t b f;
#X obj 927 116 &&;
#X obj 194 143 / 20;
#X obj 177 52 bng 15 250 50 0 empty empty empty 17 7 0 10 -258113 -1
-1;
#X floatatom 277 94 5 0 0 0 - - -;
#X msg 294 396 0;
#X obj 294 368 sel 0;
#X obj 321 396 t b;
#X msg 321 422 10;
#X msg 716 382 0;
#X obj 716 354 sel 0;
#X obj 743 382 t b;
#X msg 743 408 10;
#X msg 1023 425 0;
#X obj 1023 397 sel 0;
#X obj 1050 425 t b;
#X msg 1050 451 10;
#X obj 982 264 random 4;
#X obj 507 424 pack f f f f f f;
#X obj 109 475 nqpoly4 10 rotator symbols;
#X obj 109 550 pix_buffer symbols;
#X obj 507 547 pix_buffer formulae;
#X obj 854 541 pix_buffer diagrams;
#X obj 852 469 nqpoly4 10 flirr diagrams;
#X obj 507 467 nqpoly4 10 stieb formulae;
#X obj 109 361 + 1;
#X obj 507 358 + 1;
#X obj 852 356 + 1;
#X obj 507 525 load_textures form 15;
#X obj 109 439 pack f f f f f f f f;
#X obj 109 528 load_textures sym 53;
#X obj 109 318 random 53;
#X obj 389 264 r 3Dx_2;
#X obj 389 287 / 45;
#X obj 439 286 / 45;
#X obj 439 263 r 3Dy_2;
#X obj 852 428 pack f f f;
#X obj 854 520 load_textures dia 49;
#X obj 852 252 random 49;
#X obj 922 12 r filter_diagrams;
#X obj 200 45 r filter_symbols;
#X obj 577 52 r filter_formulas;
#X text 9 526 preload;
#X obj 124 337 + 1;
#X obj 124 293 random 3;
#X obj 136 361 * 500;
#X connect 0 0 89 1;
#X connect 1 0 91 0;
#X connect 1 1 104 0;
#X connect 1 2 55 0;
#X connect 1 3 7 0;
#X connect 1 4 9 0;
#X connect 1 5 11 0;
#X connect 2 0 89 2;
#X connect 3 0 89 3;
#X connect 4 0 89 4;
#X connect 5 0 89 5;
#X connect 6 0 105 1;
#X connect 7 0 8 0;
#X connect 8 0 3 0;
#X connect 9 0 10 0;
#X connect 10 0 4 0;
#X connect 11 0 12 0;
#X connect 12 0 5 0;
#X connect 13 0 14 0;
#X connect 14 0 0 0;
#X connect 15 0 43 1;
#X connect 15 0 66 0;
#X connect 16 0 78 1;
#X connect 17 0 42 0;
#X connect 17 1 16 0;
#X connect 17 2 32 0;
#X connect 17 3 25 0;
#X connect 17 4 26 0;
#X connect 17 5 27 0;
#X connect 18 0 78 2;
#X connect 19 0 78 3;
#X connect 20 0 78 4;
#X connect 21 0 78 5;
#X connect 22 0 31 0;
#X connect 23 0 24 0;
#X connect 24 0 16 0;
#X connect 25 0 28 0;
#X connect 26 0 29 0;
#X connect 27 0 30 0;
#X connect 28 0 19 0;
#X connect 29 0 20 0;
#X connect 30 0 21 0;
#X connect 31 0 16 0;
#X connect 32 0 33 0;
#X connect 33 0 18 0;
#X connect 34 0 96 2;
#X connect 35 0 34 0;
#X connect 36 0 98 0;
#X connect 36 1 77 0;
#X connect 37 0 57 0;
#X connect 38 0 39 0;
#X connect 39 0 96 1;
#X connect 40 0 45 1;
#X connect 40 0 70 0;
#X connect 41 0 60 0;
#X connect 41 0 74 0;
#X connect 42 0 86 0;
#X connect 43 0 1 0;
#X connect 44 0 46 0;
#X connect 45 0 17 0;
#X connect 46 0 43 0;
#X connect 47 0 46 1;
#X connect 48 0 49 0;
#X connect 49 0 45 0;
#X connect 50 0 49 1;
#X connect 51 0 52 0;
#X connect 52 0 54 0;
#X connect 53 0 52 1;
#X connect 54 0 36 0;
#X connect 55 0 2 0;
#X connect 56 0 62 0;
#X connect 57 0 96 1;
#X connect 58 0 59 0;
#X connect 59 0 61 0;
#X connect 60 0 61 0;
#X connect 60 1 61 1;
#X connect 61 0 54 1;
#X connect 62 0 55 1;
#X connect 63 0 1 0;
#X connect 64 0 62 1;
#X connect 65 0 79 1;
#X connect 66 0 65 0;
#X connect 66 1 67 0;
#X connect 67 0 68 0;
#X connect 68 0 79 1;
#X connect 69 0 84 1;
#X connect 70 0 69 0;
#X connect 70 1 71 0;
#X connect 71 0 72 0;
#X connect 72 0 84 1;
#X connect 73 0 83 1;
#X connect 74 0 73 0;
#X connect 74 1 75 0;
#X connect 75 0 76 0;
#X connect 76 0 83 1;
#X connect 77 0 35 0;
#X connect 78 0 84 0;
#X connect 85 0 89 0;
#X connect 86 0 78 0;
#X connect 87 0 96 0;
#X connect 88 0 81 0;
#X connect 89 0 79 0;
#X connect 90 0 80 0;
#X connect 91 0 85 0;
#X connect 92 0 93 0;
#X connect 93 0 89 6;
#X connect 94 0 89 7;
#X connect 95 0 94 0;
#X connect 96 0 83 0;
#X connect 97 0 82 0;
#X connect 98 0 87 0;
#X connect 99 0 53 0;
#X connect 100 0 47 0;
#X connect 101 0 50 0;
#X connect 103 0 105 0;
#X connect 104 0 103 0;
#X connect 105 0 0 0;
