#N canvas 234 241 613 430 10;
#X obj 32 20 inlet;
#X obj 160 360 outlet;
#X obj 235 214 change;
#X floatatom 235 237 5 0 0 0 - - -;
#X obj 160 330 glsl_program;
#X obj 190 212 change;
#X floatatom 190 235 5 0 0 0 - - -;
#X obj 190 262 pack;
#X obj 235 262 t b f;
#X obj 160 134 glsl_vertex;
#X obj 160 167 glsl_fragment;
#X msg 190 301 link \$1 \$2;
#X obj 59 226 gemframebuffer;
#X obj 32 49 t a a;
#X obj 83 21 loadbang;
#X obj 59 275 square 2;
#X obj 59 252 translateXYZ 0 0 -2;
#X obj 467 18 inlet;
#X msg 83 132 texunit \$1;
#X obj 83 63 \$1;
#X msg 83 103 texture1 \$1;
#X obj 390 19 inlet;
#X msg 390 135 contrast \$1;
#X msg 467 135 saturation \$1;
#X msg 182 61 open contrast.vert;
#X msg 182 90 open contrast.frag;
#X connect 0 0 13 0;
#X connect 2 0 3 0;
#X connect 3 0 8 0;
#X connect 4 0 1 0;
#X connect 5 0 6 0;
#X connect 6 0 7 0;
#X connect 7 0 11 0;
#X connect 8 0 7 0;
#X connect 8 1 7 1;
#X connect 9 0 10 0;
#X connect 9 1 5 0;
#X connect 10 0 4 0;
#X connect 10 1 2 0;
#X connect 11 0 4 0;
#X connect 12 0 16 0;
#X connect 13 0 9 0;
#X connect 13 1 12 0;
#X connect 14 0 19 0;
#X connect 14 0 24 0;
#X connect 14 0 25 0;
#X connect 16 0 15 0;
#X connect 17 0 23 0;
#X connect 18 0 12 0;
#X connect 19 0 18 0;
#X connect 19 0 20 0;
#X connect 20 0 4 0;
#X connect 21 0 22 0;
#X connect 22 0 4 0;
#X connect 23 0 4 0;
#X connect 24 0 9 0;
#X connect 25 0 10 0;
