#N canvas 609 69 931 604 10;
#X obj 506 525 outlet;
#X obj 598 39 inlet;
#X text 487 43 blend mode;
#X text 501 58 0 = off;
#X text 502 71 1 = alpha;
#X text 501 84 2 = add;
#X text 502 97 3 = multiply;
#X text 502 110 4 = hard light;
#X text 502 123 5 = overlay;
#X text 502 137 6 = substract;
#X obj 664 339 change;
#X floatatom 664 362 5 0 0 0 - - -;
#X msg 598 138 blendMode \$1;
#X obj 598 111 i;
#X obj 506 488 glsl_program;
#X obj 619 337 change;
#X floatatom 619 360 5 0 0 0 - - -;
#X obj 619 387 pack;
#X obj 664 387 t b f;
#X obj 506 292 glsl_vertex;
#X obj 506 325 glsl_fragment;
#X msg 554 459 link \$1 \$2;
#X obj 493 201 loadbang;
#N canvas 242 260 450 300 onebang 0;
#X obj 120 71 inlet;
#X obj 120 151 outlet;
#X obj 120 120 t b;
#X obj 120 100 change;
#X msg 161 71 set -1;
#X obj 161 11 gemhead;
#X obj 161 51 route 0;
#X obj 161 31 route gem_state;
#X connect 0 0 3 0;
#X connect 2 0 1 0;
#X connect 3 0 2 0;
#X connect 4 0 3 0;
#X connect 5 0 7 0;
#X connect 6 0 4 0;
#X connect 7 0 6 0;
#X restore 659 527 pd onebang;
#X obj 43 165 translateXYZ 0 0 -2;
#X obj 43 137 gemframebuffer;
#X obj 43 37 inlet;
#X obj 43 212 square 2 2;
#X obj 289 164 translateXYZ 0 0 -2;
#X obj 289 136 gemframebuffer;
#X obj 289 218 square 2 2;
#X obj 55 283 int \$1;
#X msg 43 311 type FLOAT \, dimen 1024 1024 \, rectangle 0 \, texunit
\$1;
#X obj 289 40 inlet;
#X msg 289 381 type FLOAT \, dimen 1024 1024 \, rectangle 0 \, texunit
\$1;
#X obj 289 354 int \$2;
#X obj 658 457 \$1;
#X obj 729 458 \$2;
#X msg 506 230 open QmultiBlend.vert;
#X msg 493 256 open QmultiBlend.frag;
#X obj 43 71 t a a;
#X msg 752 413 3;
#X msg 68 236 3;
#X msg 315 274 4;
#X obj 42 186 pix_texture;
#X obj 289 190 pix_texture;
#X msg 658 491 texture3 \$1;
#X msg 729 490 texture4 \$1;
#X connect 1 0 13 0;
#X connect 10 0 11 0;
#X connect 11 0 18 0;
#X connect 12 0 14 0;
#X connect 13 0 12 0;
#X connect 14 0 0 0;
#X connect 14 1 23 0;
#X connect 15 0 16 0;
#X connect 16 0 17 0;
#X connect 17 0 21 0;
#X connect 18 0 17 0;
#X connect 18 1 17 1;
#X connect 19 0 20 0;
#X connect 19 1 15 0;
#X connect 20 0 14 0;
#X connect 20 1 10 0;
#X connect 21 0 14 0;
#X connect 22 0 39 0;
#X connect 22 0 38 0;
#X connect 22 0 31 0;
#X connect 22 0 35 0;
#X connect 23 0 36 0;
#X connect 23 0 37 0;
#X connect 24 0 44 0;
#X connect 25 0 24 0;
#X connect 26 0 40 0;
#X connect 28 0 45 0;
#X connect 29 0 28 0;
#X connect 31 0 32 0;
#X connect 32 0 25 0;
#X connect 33 0 29 0;
#X connect 34 0 29 0;
#X connect 35 0 34 0;
#X connect 36 0 46 0;
#X connect 37 0 47 0;
#X connect 38 0 19 0;
#X connect 39 0 20 0;
#X connect 40 0 19 0;
#X connect 40 1 25 0;
#X connect 41 0 47 0;
#X connect 42 0 32 0;
#X connect 43 0 34 0;
#X connect 44 0 27 0;
#X connect 45 0 30 0;
#X connect 46 0 14 0;
#X connect 47 0 14 0;
