#N canvas 615 68 835 596 10;
#N canvas 281 527 719 296 gemwin 0;
#X obj 67 178 outlet;
#X obj 67 10 inlet;
#X obj 67 41 route create;
#X msg 67 70 set destroy;
#X msg 182 68 set create;
#X msg 131 133 create \, 1;
#X msg 183 101 destroy;
#N canvas 243 699 317 295 Gem.init 0;
#X obj 59 46 loadbang;
#X obj 171 260 outlet;
#X msg 104 103 color 0 0 0;
#X msg 2 210 FSAA \$1;
#X msg 2 184 0;
#X msg 31 184 2;
#X msg 60 184 4;
#X obj 59 65 t b b b b b;
#X msg 171 190 frame 30;
#X msg 213 220 reset;
#X msg 89 184 8;
#X msg 91 128 dimen 640 480;
#X connect 0 0 7 0;
#X connect 2 0 1 0;
#X connect 3 0 1 0;
#X connect 4 0 3 0;
#X connect 5 0 3 0;
#X connect 6 0 3 0;
#X connect 7 0 10 0;
#X connect 7 1 11 0;
#X connect 7 2 2 0;
#X connect 7 3 8 0;
#X connect 7 4 9 0;
#X connect 8 0 1 0;
#X connect 9 0 1 0;
#X connect 10 0 3 0;
#X connect 11 0 1 0;
#X restore 175 23 pd Gem.init;
#X obj 356 108 r fullscreen;
#X obj 130 194 gemhead;
#X obj 130 221 s gemhead;
#X obj 375 164 sel 1 0;
#X obj 356 137 t b f b;
#X msg 426 164 destroy;
#X obj 131 157 gemwin 25;
#X msg 375 194 border 0 \, offset 1920 0 \, dimen 1280 960 \, fullscreen
0;
#X msg 394 221 border 1 \, offset 0 0 \, dimen 640 480 \, fullscreen
0;
#X msg 279 29 dimen 1280 1024;
#X connect 1 0 2 0;
#X connect 2 0 3 0;
#X connect 2 0 5 0;
#X connect 2 1 4 0;
#X connect 2 1 6 0;
#X connect 3 0 0 0;
#X connect 4 0 0 0;
#X connect 5 0 14 0;
#X connect 6 0 14 0;
#X connect 7 0 14 0;
#X connect 8 0 12 0;
#X connect 9 0 10 0;
#X connect 11 0 15 0;
#X connect 11 1 16 0;
#X connect 12 1 11 0;
#X connect 12 2 13 0;
#X connect 12 2 4 0;
#X connect 13 0 14 0;
#X connect 15 0 14 0;
#X connect 16 0 14 0;
#X connect 17 0 14 0;
#X restore 715 45 pd gemwin;
#X msg 715 17 create;
#X obj 625 22 tgl 15 0 empty empty fullscreen -64 7 0 8 -258113 -1
-258113 0 1;
#X obj 625 45 s fullscreen;
#X obj 38 28 gemhead;
#X obj 38 140 pix_image;
#X obj 54 60 bng 15 250 50 0 empty empty empty 0 -6 0 8 -262144 -1
-1;
#N canvas 0 0 450 300 openpanel 0;
#X obj 114 62 inlet;
#X obj 121 254 outlet;
#X obj 114 125 openpanel;
#X msg 114 162 set open \$1;
#X obj 114 199 t b a;
#X connect 0 0 2 0;
#X connect 2 0 3 0;
#X connect 3 0 4 0;
#X connect 4 0 1 0;
#X connect 4 1 1 0;
#X restore 54 81 pd openpanel;
#X msg 54 109 open /home/ub/visuals/p0w3r/pwr009.png;
#X obj 312 31 gemhead;
#X obj 312 143 pix_image;
#X obj 328 63 bng 15 250 50 0 empty empty empty 0 -6 0 8 -262144 -1
-1;
#N canvas 0 0 450 300 openpanel 0;
#X obj 114 62 inlet;
#X obj 121 254 outlet;
#X obj 114 125 openpanel;
#X msg 114 162 set open \$1;
#X obj 114 199 t b a;
#X connect 0 0 2 0;
#X connect 2 0 3 0;
#X connect 3 0 4 0;
#X connect 4 0 1 0;
#X connect 4 1 1 0;
#X restore 328 84 pd openpanel;
#X msg 328 112 open /home/ub/visuals/p0w3r/pwr039.png;
#X obj 270 288 hradio 15 1 0 8 empty empty empty 0 -8 0 10 -262144
-1 -1 7;
#X obj 177 350 square 2 2;
#X obj 38 201 GLSL_contrast 1;
#X obj 312 199 GLSL_contrast 2;
#X obj 128 158 hsl 128 15 0 1 0 0 empty empty empty -2 -8 0 10 -262144
-1 -1 0 1;
#X obj 84 177 hsl 128 15 0 1 0 0 empty empty empty -2 -8 0 10 -262144
-1 -1 9600 1;
#X obj 402 161 hsl 128 15 0 1 0 0 empty empty empty -2 -8 0 10 -262144
-1 -1 0 1;
#X obj 358 180 hsl 128 15 0 1 0 0 empty empty empty -2 -8 0 10 -262144
-1 -1 7700 1;
#X obj 177 326 pix_texture;
#X obj 177 285 GLSL_blend 3 4;
#X connect 0 0 1 0;
#X connect 1 0 0 0;
#X connect 2 0 3 0;
#X connect 4 0 5 0;
#X connect 5 0 16 0;
#X connect 6 0 7 0;
#X connect 7 0 8 0;
#X connect 8 0 5 0;
#X connect 9 0 10 0;
#X connect 10 0 17 0;
#X connect 11 0 12 0;
#X connect 12 0 13 0;
#X connect 13 0 10 0;
#X connect 14 0 23 2;
#X connect 16 0 23 0;
#X connect 17 0 23 1;
#X connect 18 0 16 2;
#X connect 19 0 16 1;
#X connect 20 0 17 2;
#X connect 21 0 17 1;
#X connect 22 0 15 0;
#X connect 23 0 22 0;
